<?xml version="1.0" encoding="us-ascii" standalone="no"?><svg xmlns="http://www.w3.org/2000/svg" xmlns:xlink="http://www.w3.org/1999/xlink" contentStyleType="text/css" height="1091px" preserveAspectRatio="none" style="width:1147px;height:1091px;background:#FFFFFF;" version="1.1" viewBox="0 0 1147 1091" width="1147px" zoomAndPan="magnify"><defs/><g><rect fill="none" height="24.583" style="stroke:none;stroke-width:1.0;" width="1114.5" x="15" y="12.4551"/><ellipse cx="122" cy="52.0381" fill="#222222" rx="10" ry="10" style="stroke:#222222;stroke-width:1.0;"/><rect fill="#F1F1F1" height="36.3887" rx="12.5" ry="12.5" style="stroke:#181818;stroke-width:0.5;" width="202" x="21" y="82.0381"/><text fill="#000000" font-family="sans-serif" font-size="12" lengthAdjust="spacing" textLength="182" x="31" y="105.79">&#25353;&#23567;&#26102;&#25110;&#38632;&#37327;&#35302;&#21457;&#19978;&#20256; JSON &#25968;&#25454;</text><line style="stroke:#000000;stroke-width:1.5;" x1="15" x2="15" y1="12.4551" y2="1079.3284"/><rect fill="#F1F1F1" height="36.3887" rx="12.5" ry="12.5" style="stroke:#181818;stroke-width:0.5;" width="68" x="238" y="138.4268"/><text fill="#000000" font-family="sans-serif" font-size="12" lengthAdjust="spacing" textLength="48" x="248" y="162.1787">&#25509;&#25910;&#35831;&#27714;</text><line style="stroke:#000000;stroke-width:1.5;" x1="227" x2="227" y1="12.4551" y2="1079.3284"/><rect fill="#F1F1F1" height="36.3887" rx="12.5" ry="12.5" style="stroke:#181818;stroke-width:0.5;" width="124" x="371" y="194.8154"/><text fill="#000000" font-family="sans-serif" font-size="12" lengthAdjust="spacing" textLength="104" x="381" y="218.5674">&#20889;&#20837; MySQL &#21407;&#22987;&#34920;</text><rect fill="#F1F1F1" height="52.7773" rx="12.5" ry="12.5" style="stroke:#181818;stroke-width:0.5;" width="224" x="321" y="251.2041"/><text fill="#000000" font-family="sans-serif" font-size="12" lengthAdjust="spacing" textLength="204" x="331" y="274.9561">&#26356;&#26032; Redis &#32531;&#23384;;    &lt;-- Redis &#22987;&#32456;&#24320;&#21551;</text><text fill="#000000" font-family="sans-serif" font-size="12" lengthAdjust="spacing" textLength="51" x="331" y="291.3447">:&#38408;&#20540;&#26657;&#39564;</text><rect fill="#F1F1F1" height="36.3887" rx="12.5" ry="12.5" style="stroke:#181818;stroke-width:0.5;" width="80" x="393" y="373.4929"/><text fill="#000000" font-family="sans-serif" font-size="12" lengthAdjust="spacing" textLength="60" x="403" y="397.2449">&#20889;&#20837;&#21578;&#35686;&#34920;</text><rect fill="#F1F1F1" height="36.3887" rx="12.5" ry="12.5" style="stroke:#181818;stroke-width:0.5;" width="122" x="372" y="444.8816"/><text fill="#000000" font-family="sans-serif" font-size="12" lengthAdjust="spacing" textLength="102" x="382" y="468.6335">&#36890;&#36807; SSE &#25512;&#36865;&#21578;&#35686;</text><polygon fill="#F1F1F1" points="408,323.9814,458,323.9814,470,335.9814,458,347.9814,408,347.9814,396,335.9814,408,323.9814" style="stroke:#181818;stroke-width:0.5;"/><text fill="#000000" font-family="sans-serif" font-size="11" lengthAdjust="spacing" textLength="11" x="437" y="360.5874">&#26159;</text><text fill="#000000" font-family="sans-serif" font-size="11" lengthAdjust="spacing" textLength="50" x="408" y="341.0759">&#36229;&#36807;&#38408;&#20540;?</text><text fill="#000000" font-family="sans-serif" font-size="11" lengthAdjust="spacing" textLength="11" x="470" y="333.5645">&#21542;</text><polygon fill="#F1F1F1" points="433,501.2703,445,513.2703,433,525.2703,421,513.2703,433,501.2703" style="stroke:#181818;stroke-width:0.5;"/><line style="stroke:#000000;stroke-width:1.5;" x1="315" x2="315" y1="12.4551" y2="1079.3284"/><path d="M733,540.7102 L733,559.4646 L713,563.4646 L733,567.4646 L733,586.219 A0,0 0 0 0 733,586.219 L936,586.219 A0,0 0 0 0 936,586.219 L936,550.7102 L926,540.7102 L733,540.7102 A0,0 0 0 0 733,540.7102 " fill="#FEFFDD" style="stroke:#181818;stroke-width:0.5;"/><path d="M926,540.7102 L926,550.7102 L936,550.7102 L926,540.7102 " fill="#FEFFDD" style="stroke:#181818;stroke-width:0.5;"/><text fill="#000000" font-family="sans-serif" font-size="13" lengthAdjust="spacing" textLength="143" x="739" y="560.6082">&#27599;&#23567;&#26102;&#25972;&#28857;&#35302;&#21457;&#23567;&#26102;&#32858;&#21512;</text><text fill="#000000" font-family="sans-serif" font-size="13" lengthAdjust="spacing" textLength="182" x="739" y="578.3625">&#27599;&#26085; 00:05 &#35302;&#21457;&#26085;/&#26092;/&#26376;/&#24180;&#32858;&#21512;</text><rect fill="#F1F1F1" height="36.3887" rx="12.5" ry="12.5" style="stroke:#181818;stroke-width:0.5;" width="92" x="621" y="545.2703"/><text fill="#000000" font-family="sans-serif" font-size="12" lengthAdjust="spacing" textLength="72" x="631" y="569.0222">&#35302;&#21457;&#23567;&#26102;&#32858;&#21512;</text><rect fill="#F1F1F1" height="36.3887" rx="12.5" ry="12.5" style="stroke:#181818;stroke-width:0.5;" width="191" x="571.5" y="606.219"/><text fill="#000000" font-family="sans-serif" font-size="12" lengthAdjust="spacing" textLength="171" x="581.5" y="629.9709">&#32479;&#35745;&#19978;&#19968;&#23567;&#26102;&#24635;&#37327;&#12289;&#26368;&#22823;/&#26368;&#23567;&#20540;</text><rect fill="#F1F1F1" height="36.3887" rx="12.5" ry="12.5" style="stroke:#181818;stroke-width:0.5;" width="104" x="615" y="662.6077"/><text fill="#000000" font-family="sans-serif" font-size="12" lengthAdjust="spacing" textLength="84" x="625" y="686.3596">&#20889;&#20837;&#23567;&#26102;&#21382;&#21490;&#34920;</text><rect fill="#F1F1F1" height="36.3887" rx="12.5" ry="12.5" style="stroke:#181818;stroke-width:0.5;" width="125" x="604.5" y="718.9963"/><text fill="#000000" font-family="sans-serif" font-size="12" lengthAdjust="spacing" textLength="105" x="614.5" y="742.7483">&#35302;&#21457;&#26085;/&#26092;/&#26376;/&#24180;&#32858;&#21512;</text><rect fill="#F1F1F1" height="36.3887" rx="12.5" ry="12.5" style="stroke:#181818;stroke-width:0.5;" width="224" x="555" y="775.385"/><text fill="#000000" font-family="sans-serif" font-size="12" lengthAdjust="spacing" textLength="204" x="565" y="799.137">&#32479;&#35745;&#26085;/&#26092;/&#26376;/&#24180;&#21608;&#26399;&#24635;&#37327;&#12289;&#26368;&#22823;/&#26368;&#23567;&#20540;</text><rect fill="#F1F1F1" height="36.3887" rx="12.5" ry="12.5" style="stroke:#181818;stroke-width:0.5;" width="183" x="575.5" y="831.7737"/><text fill="#000000" font-family="sans-serif" font-size="12" lengthAdjust="spacing" textLength="163" x="585.5" y="855.5256">&#20889;&#20837;&#23545;&#24212;&#21382;&#21490;&#34920;&#65288;&#24130;&#31561;+&#26085;&#24535;&#65289;</text><line style="stroke:#000000;stroke-width:1.5;" x1="549" x2="549" y1="12.4551" y2="1079.3284"/><rect fill="#F1F1F1" height="36.3887" rx="12.5" ry="12.5" style="stroke:#181818;stroke-width:0.5;" width="167" x="952" y="888.1624"/><text fill="#000000" font-family="sans-serif" font-size="12" lengthAdjust="spacing" textLength="147" x="962" y="911.9143">&#20174; Redis &#26597;&#35810;&#28369;&#21160;&#31383;&#21475;&#25968;&#25454;</text><rect fill="#F1F1F1" height="36.3887" rx="12.5" ry="12.5" style="stroke:#181818;stroke-width:0.5;" width="142" x="964.5" y="944.551"/><text fill="#000000" font-family="sans-serif" font-size="12" lengthAdjust="spacing" textLength="122" x="974.5" y="968.303">&#35745;&#31639;&#23376;&#21306;&#38388;&#38477;&#38632; &amp; &#32047;&#35745;</text><rect fill="#F1F1F1" height="36.3887" rx="12.5" ry="12.5" style="stroke:#181818;stroke-width:0.5;" width="140" x="965.5" y="1000.9397"/><text fill="#000000" font-family="sans-serif" font-size="12" lengthAdjust="spacing" textLength="120" x="975.5" y="1024.6917">&#23637;&#31034;&#21333;&#31449;&#28857;&#25110;&#20840;&#32593;&#24179;&#22343;</text><ellipse cx="1035.5" cy="1068.3284" fill="none" rx="11" ry="11" style="stroke:#222222;stroke-width:1.0;"/><ellipse cx="1035.5" cy="1068.3284" fill="#222222" rx="6" ry="6" style="stroke:#222222;stroke-width:1.0;"/><line style="stroke:#000000;stroke-width:1.5;" x1="941" x2="941" y1="12.4551" y2="1079.3284"/><line style="stroke:#000000;stroke-width:1.5;" x1="1128" x2="1128" y1="12.4551" y2="1079.3284"/><line style="stroke:#181818;stroke-width:1.0;" x1="122" x2="122" y1="62.0381" y2="82.0381"/><polygon fill="#181818" points="118,72.0381,122,82.0381,126,72.0381,122,76.0381" style="stroke:#181818;stroke-width:1.0;"/><line style="stroke:#181818;stroke-width:1.0;" x1="433" x2="433" y1="231.2041" y2="251.2041"/><polygon fill="#181818" points="429,241.2041,433,251.2041,437,241.2041,433,245.2041" style="stroke:#181818;stroke-width:1.0;"/><line style="stroke:#181818;stroke-width:1.0;" x1="433" x2="433" y1="409.8816" y2="444.8816"/><polygon fill="#181818" points="429,434.8816,433,444.8816,437,434.8816,433,438.8816" style="stroke:#181818;stroke-width:1.0;"/><line style="stroke:#181818;stroke-width:1.0;" x1="433" x2="433" y1="347.9814" y2="373.4929"/><polygon fill="#181818" points="429,363.4929,433,373.4929,437,363.4929,433,367.4929" style="stroke:#181818;stroke-width:1.0;"/><line style="stroke:#181818;stroke-width:1.0;" x1="470" x2="504" y1="335.9814" y2="335.9814"/><polygon fill="#181818" points="500,417.3816,504,427.3816,508,417.3816,504,421.3816" style="stroke:#181818;stroke-width:1.0;"/><line style="stroke:#181818;stroke-width:1.0;" x1="504" x2="504" y1="335.9814" y2="513.2703"/><line style="stroke:#181818;stroke-width:1.0;" x1="504" x2="445" y1="513.2703" y2="513.2703"/><polygon fill="#181818" points="455,509.2703,445,513.2703,455,517.2703,451,513.2703" style="stroke:#181818;stroke-width:1.0;"/><line style="stroke:#181818;stroke-width:1.0;" x1="433" x2="433" y1="481.2703" y2="501.2703"/><polygon fill="#181818" points="429,491.2703,433,501.2703,437,491.2703,433,495.2703" style="stroke:#181818;stroke-width:1.0;"/><line style="stroke:#181818;stroke-width:1.0;" x1="433" x2="433" y1="303.9814" y2="323.9814"/><polygon fill="#181818" points="429,313.9814,433,323.9814,437,313.9814,433,317.9814" style="stroke:#181818;stroke-width:1.0;"/><line style="stroke:#181818;stroke-width:1.0;" x1="667" x2="667" y1="581.6589" y2="606.219"/><polygon fill="#181818" points="663,596.219,667,606.219,671,596.219,667,600.219" style="stroke:#181818;stroke-width:1.0;"/><line style="stroke:#181818;stroke-width:1.0;" x1="667" x2="667" y1="642.6077" y2="662.6077"/><polygon fill="#181818" points="663,652.6077,667,662.6077,671,652.6077,667,656.6077" style="stroke:#181818;stroke-width:1.0;"/><line style="stroke:#181818;stroke-width:1.0;" x1="667" x2="667" y1="698.9963" y2="718.9963"/><polygon fill="#181818" points="663,708.9963,667,718.9963,671,708.9963,667,712.9963" style="stroke:#181818;stroke-width:1.0;"/><line style="stroke:#181818;stroke-width:1.0;" x1="667" x2="667" y1="755.385" y2="775.385"/><polygon fill="#181818" points="663,765.385,667,775.385,671,765.385,667,769.385" style="stroke:#181818;stroke-width:1.0;"/><line style="stroke:#181818;stroke-width:1.0;" x1="667" x2="667" y1="811.7737" y2="831.7737"/><polygon fill="#181818" points="663,821.7737,667,831.7737,671,821.7737,667,825.7737" style="stroke:#181818;stroke-width:1.0;"/><line style="stroke:#181818;stroke-width:1.0;" x1="1035.5" x2="1035.5" y1="924.551" y2="944.551"/><polygon fill="#181818" points="1031.5,934.551,1035.5,944.551,1039.5,934.551,1035.5,938.551" style="stroke:#181818;stroke-width:1.0;"/><line style="stroke:#181818;stroke-width:1.0;" x1="1035.5" x2="1035.5" y1="980.9397" y2="1000.9397"/><polygon fill="#181818" points="1031.5,990.9397,1035.5,1000.9397,1039.5,990.9397,1035.5,994.9397" style="stroke:#181818;stroke-width:1.0;"/><line style="stroke:#181818;stroke-width:1.0;" x1="1035.5" x2="1035.5" y1="1037.3284" y2="1057.3284"/><polygon fill="#181818" points="1031.5,1047.3284,1035.5,1057.3284,1039.5,1047.3284,1035.5,1051.3284" style="stroke:#181818;stroke-width:1.0;"/><line style="stroke:#181818;stroke-width:1.0;" x1="122" x2="122" y1="118.4268" y2="123.4268"/><line style="stroke:#181818;stroke-width:1.0;" x1="122" x2="272" y1="123.4268" y2="123.4268"/><line style="stroke:#181818;stroke-width:1.0;" x1="272" x2="272" y1="123.4268" y2="138.4268"/><polygon fill="#181818" points="268,128.4268,272,138.4268,276,128.4268,272,132.4268" style="stroke:#181818;stroke-width:1.0;"/><line style="stroke:#181818;stroke-width:1.0;" x1="272" x2="272" y1="174.8154" y2="179.8154"/><line style="stroke:#181818;stroke-width:1.0;" x1="272" x2="433" y1="179.8154" y2="179.8154"/><line style="stroke:#181818;stroke-width:1.0;" x1="433" x2="433" y1="179.8154" y2="194.8154"/><polygon fill="#181818" points="429,184.8154,433,194.8154,437,184.8154,433,188.8154" style="stroke:#181818;stroke-width:1.0;"/><line style="stroke:#181818;stroke-width:1.0;" x1="433" x2="433" y1="525.2703" y2="530.2703"/><line style="stroke:#181818;stroke-width:1.0;" x1="433" x2="667" y1="530.2703" y2="530.2703"/><line style="stroke:#181818;stroke-width:1.0;" x1="667" x2="667" y1="530.2703" y2="545.2703"/><polygon fill="#181818" points="663,535.2703,667,545.2703,671,535.2703,667,539.2703" style="stroke:#181818;stroke-width:1.0;"/><line style="stroke:#181818;stroke-width:1.0;" x1="667" x2="667" y1="868.1624" y2="873.1624"/><line style="stroke:#181818;stroke-width:1.0;" x1="667" x2="1035.5" y1="873.1624" y2="873.1624"/><line style="stroke:#181818;stroke-width:1.0;" x1="1035.5" x2="1035.5" y1="873.1624" y2="888.1624"/><polygon fill="#181818" points="1031.5,878.1624,1035.5,888.1624,1039.5,878.1624,1035.5,882.1624" style="stroke:#181818;stroke-width:1.0;"/><text fill="#000000" font-family="sans-serif" font-size="18" lengthAdjust="spacing" textLength="57" x="92.5" y="33.083">Sensor</text><text fill="#000000" font-family="sans-serif" font-size="18" lengthAdjust="spacing" textLength="78" x="232" y="33.083">Controller</text><text fill="#000000" font-family="sans-serif" font-size="18" lengthAdjust="spacing" textLength="60" x="402" y="33.083">Service</text><text fill="#000000" font-family="sans-serif" font-size="18" lengthAdjust="spacing" textLength="139" x="675.5" y="33.083">Quartz Scheduler</text><text fill="#000000" font-family="sans-serif" font-size="18" lengthAdjust="spacing" textLength="177" x="946" y="33.083">Sliding Window Query</text><!--SRC=[ZPBFZz9G4CVlxwzu9mCn6xXuQKqy62_67y4UF9lbxTA4jAOKpHeEXOIb8528onPsCIowGBCAPPNW0ZNxnyYyjgVz5tpOua4JOozDPxupt-bd9YSGAIChEPHHNoWgucYr35E3cdEg7_kdbbyolD4GZERwgh9spl13uUaJJ5jJMflmA7TVbbH5JgS9g-TeVK2FvfxzZLuMM4uWoYjnbx0477QWEC2F3uJ48mpr7epUUdsBPnMdCteynSz8KinWrta7upQFsNDtPoSCCgcxqi7He64Zpc_he3dqhEzVL7aaxk68DozwrwKWVY-ArHIHS8IsxIZ2EFI5PiKR3tyPifYldR02B0WFCArRlfOFqZmYwGp14MWCeuX8IN4FeLmYouYymS9kYYIpmJy6B090Nlu46ZgF95abM17tKoepeBOHuclDtCBYRtsWeUO0n-DS_0uE5EmxHitFCThLOx2OXL8s2DvqHvoxwdcJ_cO7LrhONrkntVpGyhIhmVaejdbD3OQ1tm8FT50_1EDBmFiVNlpMuuyiD2tQxVs7cRs0vT5linj7XqN17PTlitvmRTuuPPuH5T9YKfJsyNDHIiglSI9Bb0D6TRsgX_kclO5dVw2h9bGizy84u-FsrZWscpinOTo0wj8tPtwdniuJtyBkp6QfpI2NBVTy2RMM-wd3qBFxXQBbVc_2uYkyB_7imEMNFm40]--></g></svg>