<?xml version="1.0" encoding="us-ascii" standalone="no"?><svg xmlns="http://www.w3.org/2000/svg" xmlns:xlink="http://www.w3.org/1999/xlink" contentStyleType="text/css" height="394px" preserveAspectRatio="none" style="width:1792px;height:394px;background:#FFFFFF;" version="1.1" viewBox="0 0 1792 394" width="1792px" zoomAndPan="magnify"><defs/><g><ellipse cx="898" cy="20" fill="#222222" rx="10" ry="10" style="stroke:#222222;stroke-width:1.0;"/><rect fill="#F1F1F1" height="36.3887" rx="12.5" ry="12.5" style="stroke:#181818;stroke-width:0.5;" width="92" x="852" y="50"/><text fill="#000000" font-family="sans-serif" font-size="12" lengthAdjust="spacing" textLength="72" x="862" y="73.752">&#29992;&#25143;&#36873;&#25321;&#25805;&#20316;</text><polygon fill="#F1F1F1" points="82,106.3887,152,106.3887,164,118.3887,152,130.3887,82,130.3887,70,118.3887,82,106.3887" style="stroke:#181818;stroke-width:0.5;"/><text fill="#000000" font-family="sans-serif" font-size="11" lengthAdjust="spacing" textLength="18" x="121" y="142.9946">yes</text><text fill="#000000" font-family="sans-serif" font-size="11" lengthAdjust="spacing" textLength="70" x="82" y="123.4832">&#25805;&#20316; == "&#20851;&#27880;"</text><rect fill="#F1F1F1" height="36.3887" rx="12.5" ry="12.5" style="stroke:#181818;stroke-width:0.5;" width="212" x="11" y="164.4946"/><text fill="#000000" font-family="sans-serif" font-size="12" lengthAdjust="spacing" textLength="192" x="21" y="188.2466">&#25191;&#34892; Redis SADD followings:{A} {B}</text><rect fill="#F1F1F1" height="36.3887" rx="12.5" ry="12.5" style="stroke:#181818;stroke-width:0.5;" width="206" x="14" y="220.8833"/><text fill="#000000" font-family="sans-serif" font-size="12" lengthAdjust="spacing" textLength="186" x="24" y="244.6353">&#25191;&#34892; Redis SADD followers:{B} {A}</text><polygon fill="#F1F1F1" points="293.5,106.3887,385.5,106.3887,397.5,118.3887,385.5,130.3887,293.5,130.3887,281.5,118.3887,293.5,106.3887" style="stroke:#181818;stroke-width:0.5;"/><text fill="#000000" font-family="sans-serif" font-size="11" lengthAdjust="spacing" textLength="18" x="343.5" y="142.9946">yes</text><text fill="#000000" font-family="sans-serif" font-size="11" lengthAdjust="spacing" textLength="92" x="293.5" y="123.4832">&#25805;&#20316; == "&#21462;&#28040;&#20851;&#27880;"</text><rect fill="#F1F1F1" height="36.3887" rx="12.5" ry="12.5" style="stroke:#181818;stroke-width:0.5;" width="213" x="233" y="164.4946"/><text fill="#000000" font-family="sans-serif" font-size="12" lengthAdjust="spacing" textLength="193" x="243" y="188.2466">&#25191;&#34892; Redis SREM followings:{A} {B}</text><rect fill="#F1F1F1" height="36.3887" rx="12.5" ry="12.5" style="stroke:#181818;stroke-width:0.5;" width="207" x="236" y="220.8833"/><text fill="#000000" font-family="sans-serif" font-size="12" lengthAdjust="spacing" textLength="187" x="246" y="244.6353">&#25191;&#34892; Redis SREM followers:{B} {A}</text><polygon fill="#F1F1F1" points="523.5,106.3887,637.5,106.3887,649.5,118.3887,637.5,130.3887,523.5,130.3887,511.5,118.3887,523.5,106.3887" style="stroke:#181818;stroke-width:0.5;"/><text fill="#000000" font-family="sans-serif" font-size="11" lengthAdjust="spacing" textLength="18" x="584.5" y="142.9946">yes</text><text fill="#000000" font-family="sans-serif" font-size="11" lengthAdjust="spacing" textLength="114" x="523.5" y="123.4832">&#25805;&#20316; == "&#21028;&#26029;&#20851;&#27880;&#29366;&#24577;"</text><rect fill="#F1F1F1" height="36.3887" rx="12.5" ry="12.5" style="stroke:#181818;stroke-width:0.5;" width="249" x="456" y="164.4946"/><text fill="#000000" font-family="sans-serif" font-size="12" lengthAdjust="spacing" textLength="229" x="466" y="188.2466">&#25191;&#34892; Redis SISMEMBER followings:{A} {B}</text><polygon fill="#F1F1F1" points="557.5,220.8833,603.5,220.8833,615.5,232.8833,603.5,244.8833,557.5,244.8833,545.5,232.8833,557.5,220.8833" style="stroke:#181818;stroke-width:0.5;"/><text fill="#000000" font-family="sans-serif" font-size="11" lengthAdjust="spacing" textLength="46" x="557.5" y="237.9778">&#36820;&#22238; == 1</text><text fill="#000000" font-family="sans-serif" font-size="11" lengthAdjust="spacing" textLength="33" x="512.5" y="230.4663">&#24050;&#20851;&#27880;</text><text fill="#000000" font-family="sans-serif" font-size="11" lengthAdjust="spacing" textLength="33" x="615.5" y="230.4663">&#26410;&#20851;&#27880;</text><rect fill="#F1F1F1" height="36.3887" rx="12.5" ry="12.5" style="stroke:#181818;stroke-width:0.5;" width="112" x="458.5" y="254.8833"/><text fill="#000000" font-family="sans-serif" font-size="12" lengthAdjust="spacing" textLength="92" x="468.5" y="278.6353">&#36820;&#22238; &#8220;A &#24050;&#20851;&#27880; B&#8221;</text><rect fill="#F1F1F1" height="36.3887" rx="12.5" ry="12.5" style="stroke:#181818;stroke-width:0.5;" width="112" x="590.5" y="254.8833"/><text fill="#000000" font-family="sans-serif" font-size="12" lengthAdjust="spacing" textLength="92" x="600.5" y="278.6353">&#36820;&#22238; &#8220;A &#26410;&#20851;&#27880; B&#8221;</text><polygon fill="#F1F1F1" points="580.5,297.272,592.5,309.272,580.5,321.272,568.5,309.272,580.5,297.272" style="stroke:#181818;stroke-width:0.5;"/><polygon fill="#F1F1F1" points="771.5,106.3887,885.5,106.3887,897.5,118.3887,885.5,130.3887,771.5,130.3887,759.5,118.3887,771.5,106.3887" style="stroke:#181818;stroke-width:0.5;"/><text fill="#000000" font-family="sans-serif" font-size="11" lengthAdjust="spacing" textLength="18" x="832.5" y="142.9946">yes</text><text fill="#000000" font-family="sans-serif" font-size="11" lengthAdjust="spacing" textLength="114" x="771.5" y="123.4832">&#25805;&#20316; == "&#33719;&#21462;&#20851;&#27880;&#21015;&#34920;"</text><rect fill="#F1F1F1" height="36.3887" rx="12.5" ry="12.5" style="stroke:#181818;stroke-width:0.5;" width="227" x="715" y="164.4946"/><text fill="#000000" font-family="sans-serif" font-size="12" lengthAdjust="spacing" textLength="207" x="725" y="188.2466">&#25191;&#34892; Redis SMEMBERS followings:{A}</text><rect fill="#F1F1F1" height="36.3887" rx="12.5" ry="12.5" style="stroke:#181818;stroke-width:0.5;" width="117" x="770" y="220.8833"/><text fill="#000000" font-family="sans-serif" font-size="12" lengthAdjust="spacing" textLength="97" x="780" y="244.6353">&#36820;&#22238; A &#30340;&#20851;&#27880;&#21015;&#34920;</text><polygon fill="#F1F1F1" points="1007.5,106.3887,1121.5,106.3887,1133.5,118.3887,1121.5,130.3887,1007.5,130.3887,995.5,118.3887,1007.5,106.3887" style="stroke:#181818;stroke-width:0.5;"/><text fill="#000000" font-family="sans-serif" font-size="11" lengthAdjust="spacing" textLength="18" x="1068.5" y="142.9946">yes</text><text fill="#000000" font-family="sans-serif" font-size="11" lengthAdjust="spacing" textLength="114" x="1007.5" y="123.4832">&#25805;&#20316; == "&#33719;&#21462;&#31881;&#19997;&#21015;&#34920;"</text><rect fill="#F1F1F1" height="36.3887" rx="12.5" ry="12.5" style="stroke:#181818;stroke-width:0.5;" width="221" x="954" y="164.4946"/><text fill="#000000" font-family="sans-serif" font-size="12" lengthAdjust="spacing" textLength="201" x="964" y="188.2466">&#25191;&#34892; Redis SMEMBERS followers:{A}</text><rect fill="#F1F1F1" height="36.3887" rx="12.5" ry="12.5" style="stroke:#181818;stroke-width:0.5;" width="117" x="1006" y="220.8833"/><text fill="#000000" font-family="sans-serif" font-size="12" lengthAdjust="spacing" textLength="97" x="1016" y="244.6353">&#36820;&#22238; A &#30340;&#31881;&#19997;&#21015;&#34920;</text><polygon fill="#F1F1F1" points="1269,106.3887,1383,106.3887,1395,118.3887,1383,130.3887,1269,130.3887,1257,118.3887,1269,106.3887" style="stroke:#181818;stroke-width:0.5;"/><text fill="#000000" font-family="sans-serif" font-size="11" lengthAdjust="spacing" textLength="18" x="1330" y="142.9946">yes</text><text fill="#000000" font-family="sans-serif" font-size="11" lengthAdjust="spacing" textLength="114" x="1269" y="123.4832">&#25805;&#20316; == "&#33719;&#21462;&#20849;&#21516;&#20851;&#27880;"</text><rect fill="#F1F1F1" height="36.3887" rx="12.5" ry="12.5" style="stroke:#181818;stroke-width:0.5;" width="282" x="1185" y="164.4946"/><text fill="#000000" font-family="sans-serif" font-size="12" lengthAdjust="spacing" textLength="262" x="1195" y="188.2466">&#25191;&#34892; Redis SINTER followings:{A} followings:{B}</text><rect fill="#F1F1F1" height="36.3887" rx="12.5" ry="12.5" style="stroke:#181818;stroke-width:0.5;" width="167" x="1242.5" y="220.8833"/><text fill="#000000" font-family="sans-serif" font-size="12" lengthAdjust="spacing" textLength="147" x="1252.5" y="244.6353">&#36820;&#22238; A &#19982; B &#30340;&#20849;&#21516;&#20851;&#27880;&#21015;&#34920;</text><polygon fill="#F1F1F1" points="1557.5,106.3887,1671.5,106.3887,1683.5,118.3887,1671.5,130.3887,1557.5,130.3887,1545.5,118.3887,1557.5,106.3887" style="stroke:#181818;stroke-width:0.5;"/><text fill="#000000" font-family="sans-serif" font-size="11" lengthAdjust="spacing" textLength="18" x="1618.5" y="142.9946">yes</text><text fill="#000000" font-family="sans-serif" font-size="11" lengthAdjust="spacing" textLength="114" x="1557.5" y="123.4832">&#25805;&#20316; == "&#33719;&#21462;&#22909;&#21451;&#21015;&#34920;"</text><rect fill="#F1F1F1" height="36.3887" rx="12.5" ry="12.5" style="stroke:#181818;stroke-width:0.5;" width="275" x="1477" y="164.4946"/><text fill="#000000" font-family="sans-serif" font-size="12" lengthAdjust="spacing" textLength="255" x="1487" y="188.2466">&#25191;&#34892; Redis SINTER followings:{A} followers:{A}</text><rect fill="#F1F1F1" height="36.3887" rx="12.5" ry="12.5" style="stroke:#181818;stroke-width:0.5;" width="189" x="1520" y="220.8833"/><text fill="#000000" font-family="sans-serif" font-size="12" lengthAdjust="spacing" textLength="169" x="1530" y="244.6353">&#36820;&#22238; A &#30340;&#20114;&#30456;&#20851;&#27880;&#65288;&#22909;&#21451;&#65289;&#21015;&#34920;</text><ellipse cx="898" cy="372.272" fill="none" rx="11" ry="11" style="stroke:#222222;stroke-width:1.0;"/><ellipse cx="898" cy="372.272" fill="#222222" rx="6" ry="6" style="stroke:#222222;stroke-width:1.0;"/><line style="stroke:#181818;stroke-width:1.0;" x1="898" x2="898" y1="30" y2="50"/><polygon fill="#181818" points="894,40,898,50,902,40,898,44" style="stroke:#181818;stroke-width:1.0;"/><line style="stroke:#181818;stroke-width:1.0;" x1="117" x2="117" y1="200.8833" y2="220.8833"/><polygon fill="#181818" points="113,210.8833,117,220.8833,121,210.8833,117,214.8833" style="stroke:#181818;stroke-width:1.0;"/><line style="stroke:#181818;stroke-width:1.0;" x1="339.5" x2="339.5" y1="200.8833" y2="220.8833"/><polygon fill="#181818" points="335.5,210.8833,339.5,220.8833,343.5,210.8833,339.5,214.8833" style="stroke:#181818;stroke-width:1.0;"/><line style="stroke:#181818;stroke-width:1.0;" x1="545.5" x2="514.5" y1="232.8833" y2="232.8833"/><line style="stroke:#181818;stroke-width:1.0;" x1="514.5" x2="514.5" y1="232.8833" y2="254.8833"/><polygon fill="#181818" points="510.5,244.8833,514.5,254.8833,518.5,244.8833,514.5,248.8833" style="stroke:#181818;stroke-width:1.0;"/><line style="stroke:#181818;stroke-width:1.0;" x1="615.5" x2="646.5" y1="232.8833" y2="232.8833"/><line style="stroke:#181818;stroke-width:1.0;" x1="646.5" x2="646.5" y1="232.8833" y2="254.8833"/><polygon fill="#181818" points="642.5,244.8833,646.5,254.8833,650.5,244.8833,646.5,248.8833" style="stroke:#181818;stroke-width:1.0;"/><line style="stroke:#181818;stroke-width:1.0;" x1="514.5" x2="514.5" y1="291.272" y2="309.272"/><line style="stroke:#181818;stroke-width:1.0;" x1="514.5" x2="568.5" y1="309.272" y2="309.272"/><polygon fill="#181818" points="558.5,305.272,568.5,309.272,558.5,313.272,562.5,309.272" style="stroke:#181818;stroke-width:1.0;"/><line style="stroke:#181818;stroke-width:1.0;" x1="646.5" x2="646.5" y1="291.272" y2="309.272"/><line style="stroke:#181818;stroke-width:1.0;" x1="646.5" x2="592.5" y1="309.272" y2="309.272"/><polygon fill="#181818" points="602.5,305.272,592.5,309.272,602.5,313.272,598.5,309.272" style="stroke:#181818;stroke-width:1.0;"/><line style="stroke:#181818;stroke-width:1.0;" x1="580.5" x2="580.5" y1="200.8833" y2="220.8833"/><polygon fill="#181818" points="576.5,210.8833,580.5,220.8833,584.5,210.8833,580.5,214.8833" style="stroke:#181818;stroke-width:1.0;"/><line style="stroke:#181818;stroke-width:1.0;" x1="828.5" x2="828.5" y1="200.8833" y2="220.8833"/><polygon fill="#181818" points="824.5,210.8833,828.5,220.8833,832.5,210.8833,828.5,214.8833" style="stroke:#181818;stroke-width:1.0;"/><line style="stroke:#181818;stroke-width:1.0;" x1="1064.5" x2="1064.5" y1="200.8833" y2="220.8833"/><polygon fill="#181818" points="1060.5,210.8833,1064.5,220.8833,1068.5,210.8833,1064.5,214.8833" style="stroke:#181818;stroke-width:1.0;"/><line style="stroke:#181818;stroke-width:1.0;" x1="1326" x2="1326" y1="200.8833" y2="220.8833"/><polygon fill="#181818" points="1322,210.8833,1326,220.8833,1330,210.8833,1326,214.8833" style="stroke:#181818;stroke-width:1.0;"/><line style="stroke:#181818;stroke-width:1.0;" x1="1614.5" x2="1614.5" y1="200.8833" y2="220.8833"/><polygon fill="#181818" points="1610.5,210.8833,1614.5,220.8833,1618.5,210.8833,1614.5,214.8833" style="stroke:#181818;stroke-width:1.0;"/><line style="stroke:#181818;stroke-width:1.0;" x1="117" x2="117" y1="130.3887" y2="164.4946"/><polygon fill="#181818" points="113,154.4946,117,164.4946,121,154.4946,117,158.4946" style="stroke:#181818;stroke-width:1.0;"/><line style="stroke:#181818;stroke-width:1.0;" x1="117" x2="117" y1="257.272" y2="341.272"/><polygon fill="#181818" points="113,331.272,117,341.272,121,331.272,117,335.272" style="stroke:#181818;stroke-width:1.0;"/><line style="stroke:#181818;stroke-width:1.0;" x1="339.5" x2="339.5" y1="130.3887" y2="164.4946"/><polygon fill="#181818" points="335.5,154.4946,339.5,164.4946,343.5,154.4946,339.5,158.4946" style="stroke:#181818;stroke-width:1.0;"/><line style="stroke:#181818;stroke-width:1.0;" x1="339.5" x2="339.5" y1="257.272" y2="341.272"/><polygon fill="#181818" points="335.5,331.272,339.5,341.272,343.5,331.272,339.5,335.272" style="stroke:#181818;stroke-width:1.0;"/><line style="stroke:#181818;stroke-width:1.0;" x1="580.5" x2="580.5" y1="130.3887" y2="164.4946"/><polygon fill="#181818" points="576.5,154.4946,580.5,164.4946,584.5,154.4946,580.5,158.4946" style="stroke:#181818;stroke-width:1.0;"/><line style="stroke:#181818;stroke-width:1.0;" x1="580.5" x2="580.5" y1="321.272" y2="341.272"/><polygon fill="#181818" points="576.5,331.272,580.5,341.272,584.5,331.272,580.5,335.272" style="stroke:#181818;stroke-width:1.0;"/><line style="stroke:#181818;stroke-width:1.0;" x1="828.5" x2="828.5" y1="130.3887" y2="164.4946"/><polygon fill="#181818" points="824.5,154.4946,828.5,164.4946,832.5,154.4946,828.5,158.4946" style="stroke:#181818;stroke-width:1.0;"/><line style="stroke:#181818;stroke-width:1.0;" x1="828.5" x2="828.5" y1="257.272" y2="341.272"/><polygon fill="#181818" points="824.5,331.272,828.5,341.272,832.5,331.272,828.5,335.272" style="stroke:#181818;stroke-width:1.0;"/><line style="stroke:#181818;stroke-width:1.0;" x1="1064.5" x2="1064.5" y1="130.3887" y2="164.4946"/><polygon fill="#181818" points="1060.5,154.4946,1064.5,164.4946,1068.5,154.4946,1064.5,158.4946" style="stroke:#181818;stroke-width:1.0;"/><line style="stroke:#181818;stroke-width:1.0;" x1="1064.5" x2="1064.5" y1="257.272" y2="341.272"/><polygon fill="#181818" points="1060.5,331.272,1064.5,341.272,1068.5,331.272,1064.5,335.272" style="stroke:#181818;stroke-width:1.0;"/><line style="stroke:#181818;stroke-width:1.0;" x1="1326" x2="1326" y1="130.3887" y2="164.4946"/><polygon fill="#181818" points="1322,154.4946,1326,164.4946,1330,154.4946,1326,158.4946" style="stroke:#181818;stroke-width:1.0;"/><line style="stroke:#181818;stroke-width:1.0;" x1="1326" x2="1326" y1="257.272" y2="341.272"/><polygon fill="#181818" points="1322,331.272,1326,341.272,1330,331.272,1326,335.272" style="stroke:#181818;stroke-width:1.0;"/><line style="stroke:#181818;stroke-width:1.0;" x1="1614.5" x2="1614.5" y1="130.3887" y2="164.4946"/><polygon fill="#181818" points="1610.5,154.4946,1614.5,164.4946,1618.5,154.4946,1614.5,158.4946" style="stroke:#181818;stroke-width:1.0;"/><line style="stroke:#181818;stroke-width:1.0;" x1="1614.5" x2="1614.5" y1="257.272" y2="341.272"/><polygon fill="#181818" points="1610.5,331.272,1614.5,341.272,1618.5,331.272,1614.5,335.272" style="stroke:#181818;stroke-width:1.0;"/><line style="stroke:#181818;stroke-width:1.0;" x1="164" x2="281.5" y1="118.3887" y2="118.3887"/><polygon fill="#181818" points="271.5,114.3887,281.5,118.3887,271.5,122.3887,275.5,118.3887" style="stroke:#181818;stroke-width:1.0;"/><line style="stroke:#181818;stroke-width:1.0;" x1="397.5" x2="511.5" y1="118.3887" y2="118.3887"/><polygon fill="#181818" points="501.5,114.3887,511.5,118.3887,501.5,122.3887,505.5,118.3887" style="stroke:#181818;stroke-width:1.0;"/><line style="stroke:#181818;stroke-width:1.0;" x1="649.5" x2="759.5" y1="118.3887" y2="118.3887"/><polygon fill="#181818" points="749.5,114.3887,759.5,118.3887,749.5,122.3887,753.5,118.3887" style="stroke:#181818;stroke-width:1.0;"/><line style="stroke:#181818;stroke-width:1.0;" x1="897.5" x2="995.5" y1="118.3887" y2="118.3887"/><polygon fill="#181818" points="985.5,114.3887,995.5,118.3887,985.5,122.3887,989.5,118.3887" style="stroke:#181818;stroke-width:1.0;"/><line style="stroke:#181818;stroke-width:1.0;" x1="1133.5" x2="1257" y1="118.3887" y2="118.3887"/><polygon fill="#181818" points="1247,114.3887,1257,118.3887,1247,122.3887,1251,118.3887" style="stroke:#181818;stroke-width:1.0;"/><line style="stroke:#181818;stroke-width:1.0;" x1="1395" x2="1545.5" y1="118.3887" y2="118.3887"/><polygon fill="#181818" points="1535.5,114.3887,1545.5,118.3887,1535.5,122.3887,1539.5,118.3887" style="stroke:#181818;stroke-width:1.0;"/><line style="stroke:#181818;stroke-width:1.0;" x1="898" x2="898" y1="86.3887" y2="91.3887"/><line style="stroke:#181818;stroke-width:1.0;" x1="898" x2="117" y1="91.3887" y2="91.3887"/><line style="stroke:#181818;stroke-width:1.0;" x1="117" x2="117" y1="91.3887" y2="106.3887"/><polygon fill="#181818" points="113,96.3887,117,106.3887,121,96.3887,117,100.3887" style="stroke:#181818;stroke-width:1.0;"/><line style="stroke:#181818;stroke-width:1.0;" x1="1683.5" x2="1766" y1="118.3887" y2="118.3887"/><line style="stroke:#181818;stroke-width:1.0;" x1="1766" x2="1766" y1="118.3887" y2="341.272"/><polygon fill="#181818" points="1762,331.272,1766,341.272,1770,331.272,1766,335.272" style="stroke:#181818;stroke-width:1.0;"/><line style="stroke:#181818;stroke-width:1.0;" x1="117" x2="1766" y1="341.272" y2="341.272"/><line style="stroke:#181818;stroke-width:1.0;" x1="898" x2="898" y1="341.272" y2="361.272"/><polygon fill="#181818" points="894,351.272,898,361.272,902,351.272,898,355.272" style="stroke:#181818;stroke-width:1.0;"/><!--SRC=[Aov9B2hXide-PSMpZkql6pgVTQzyDhdtoTuvrbnScMaA6X2EWgsjWjBJritFDgzGqbGeoKZDKz2eJ2tMv59Gi7hMkVp5mXw5eDIKp6A5O4SN5uMq_9oS_FBClFHYgsh7MeLgfrfhV0fJYu3gd83g787gKdEAKz7jxP_sR5i7KRO7kVeIPpj28K7REvOycxOMOllphctF6Xe9kC4psDVLryar28T3GCQ_s3_bwUnv8ECDOMOztRu9OWV8HA2PK2MF6kOuAi3b59mUDSm56G9o9z2LSrRXr0ENG-Z9IybCm-R35ttRWK4CKVsqO_gBXOH26UA_O3GFWaCPwWH7XUUpMf1DjCPjyVDDdKzsp2N3Od3COR4NsK1hV1xU-7H23r79ojCl13C-aRbEQAvuigDFmGaI1WXB2BjewTwd_Tr4XGGU5-4AbYUx9ZsVlGFYbFTxEY2MlT_J2NSME7rm5PVa5m00]--></g></svg>