<?xml version="1.0" encoding="us-ascii" standalone="no"?><svg xmlns="http://www.w3.org/2000/svg" xmlns:xlink="http://www.w3.org/1999/xlink" contentStyleType="text/css" height="3313px" preserveAspectRatio="none" style="width:608px;height:3313px;background:#FFFFFF;" version="1.1" viewBox="0 0 608 3313" width="608px" zoomAndPan="magnify"><defs/><g><rect fill="none" height="176.8975" style="stroke:#000000;stroke-width:1.5;" width="204" x="169" y="11"/><path d="M207,11 L207,23.1201 L197,33.1201 L169,33.1201 " fill="none" style="stroke:#000000;stroke-width:1.5;"/><text fill="#000000" font-family="sans-serif" font-size="14" lengthAdjust="spacing" textLength="28" x="172" y="28.0439">&#29992;&#25143;</text><ellipse cx="271" cy="53.1201" fill="#222222" rx="10" ry="10" style="stroke:#222222;stroke-width:1.0;"/><rect fill="#F1F1F1" height="36.3887" rx="12.5" ry="12.5" style="stroke:#181818;stroke-width:0.5;" width="184" x="179" y="83.1201"/><text fill="#000000" font-family="sans-serif" font-size="12" lengthAdjust="spacing" textLength="164" x="189" y="106.8721">&#36755;&#20837;&#25163;&#26426;&#21495;&#65292;&#28857;&#20987;&#8220;&#21457;&#36865;&#39564;&#35777;&#30721;&#8221;</text><rect fill="#F1F1F1" height="36.3887" rx="12.5" ry="12.5" style="stroke:#181818;stroke-width:0.5;" width="171" x="185.5" y="139.5088"/><text fill="#000000" font-family="sans-serif" font-size="12" lengthAdjust="spacing" textLength="151" x="195.5" y="163.2607">&#21521;&#21518;&#31471;&#21457;&#20986; /sendCode &#35831;&#27714;</text><rect fill="none" height="679.0466" style="stroke:#000000;stroke-width:1.5;" width="534" x="63" y="197.8975"/><path d="M171,197.8975 L171,210.0176 L161,220.0176 L63,220.0176 " fill="none" style="stroke:#000000;stroke-width:1.5;"/><text fill="#000000" font-family="sans-serif" font-size="14" lengthAdjust="spacing" textLength="98" x="66" y="214.9414">&#21457;&#36865;&#39564;&#35777;&#30721;&#26381;&#21153;</text><rect fill="#F1F1F1" height="36.3887" rx="12.5" ry="12.5" style="stroke:#181818;stroke-width:0.5;" width="289" x="126.5" y="237.0176"/><text fill="#000000" font-family="sans-serif" font-size="12" lengthAdjust="spacing" textLength="269" x="136.5" y="260.7695">&#26816;&#26597; Redis &#38190; "LOGIN_CODE_REPEAT_{phone}"</text><polygon fill="#F1F1F1" points="246,293.4063,296,293.4063,308,305.4063,296,317.4063,246,317.4063,234,305.4063,246,293.4063" style="stroke:#181818;stroke-width:0.5;"/><text fill="#000000" font-family="sans-serif" font-size="11" lengthAdjust="spacing" textLength="50" x="246" y="310.5007">&#37325;&#22797;&#21457;&#36865;?</text><text fill="#000000" font-family="sans-serif" font-size="11" lengthAdjust="spacing" textLength="11" x="223" y="302.9893">&#26159;</text><text fill="#000000" font-family="sans-serif" font-size="11" lengthAdjust="spacing" textLength="11" x="308" y="302.9893">&#21542;</text><rect fill="#F1F1F1" height="36.3887" rx="12.5" ry="12.5" style="stroke:#181818;stroke-width:0.5;" width="115" x="83" y="327.4063"/><text fill="#000000" font-family="sans-serif" font-size="12" lengthAdjust="spacing" textLength="95" x="93" y="351.1582">&#36820;&#22238; "&#35831;&#31245;&#21518;&#20877;&#35797;"</text><ellipse cx="140.5" cy="394.7949" fill="none" rx="11" ry="11" style="stroke:#222222;stroke-width:1.0;"/><ellipse cx="140.5" cy="394.7949" fill="#222222" rx="6" ry="6" style="stroke:#222222;stroke-width:1.0;"/><rect fill="#F1F1F1" height="36.3887" rx="12.5" ry="12.5" style="stroke:#181818;stroke-width:0.5;" width="224" x="289.5" y="327.4063"/><text fill="#000000" font-family="sans-serif" font-size="12" lengthAdjust="spacing" textLength="204" x="299.5" y="351.1582">&#25191;&#34892; INCR &#25805;&#20316;&#65292;&#23545;&#24403;&#22825;&#21457;&#36865;&#27425;&#25968;&#35745;&#25968;</text><rect fill="#F1F1F1" height="36.3887" rx="12.5" ry="12.5" style="stroke:#181818;stroke-width:0.5;" width="175" x="314" y="433.3064"/><text fill="#000000" font-family="sans-serif" font-size="12" lengthAdjust="spacing" textLength="155" x="324" y="457.0583">&#36820;&#22238; "&#20170;&#26085;&#24050;&#36798;&#26368;&#22823;&#21457;&#36865;&#27425;&#25968;"</text><ellipse cx="401.5" cy="508.0007" fill="none" rx="11" ry="11" style="stroke:#222222;stroke-width:1.0;"/><ellipse cx="401.5" cy="508.0007" fill="#222222" rx="6" ry="6" style="stroke:#222222;stroke-width:1.0;"/><polygon fill="#F1F1F1" points="359.5,383.7949,443.5,383.7949,455.5,395.7949,443.5,407.7949,359.5,407.7949,347.5,395.7949,359.5,383.7949" style="stroke:#181818;stroke-width:0.5;"/><text fill="#000000" font-family="sans-serif" font-size="11" lengthAdjust="spacing" textLength="11" x="405.5" y="420.4009">&#26159;</text><text fill="#000000" font-family="sans-serif" font-size="11" lengthAdjust="spacing" textLength="84" x="359.5" y="400.8894">&#24403;&#22825;&#27425;&#25968; &gt; &#19978;&#38480;?</text><rect fill="#F1F1F1" height="36.3887" rx="12.5" ry="12.5" style="stroke:#181818;stroke-width:0.5;" width="159" x="322" y="561.0007"/><text fill="#000000" font-family="sans-serif" font-size="12" lengthAdjust="spacing" textLength="139" x="332" y="584.7527">&#29983;&#25104; 6 &#20301;&#38543;&#26426;&#39564;&#35777;&#30721; code</text><rect fill="#F1F1F1" height="36.3887" rx="12.5" ry="12.5" style="stroke:#181818;stroke-width:0.5;" width="367" x="218" y="617.3894"/><text fill="#000000" font-family="sans-serif" font-size="12" lengthAdjust="spacing" textLength="347" x="228" y="641.1414">&#23558; code &#20889;&#20837; Redis&#65292;&#38190; = "LOGIN_CODE_{phone}", TTL=5 &#20998;&#38047;</text><rect fill="#F1F1F1" height="36.3887" rx="12.5" ry="12.5" style="stroke:#181818;stroke-width:0.5;" width="358" x="222.5" y="673.7781"/><text fill="#000000" font-family="sans-serif" font-size="12" lengthAdjust="spacing" textLength="338" x="232.5" y="697.53">&#23558; "LOGIN_CODE_REPEAT_{phone}" &#20889;&#20837; Redis&#65292;TTL=60 &#31186;</text><rect fill="#F1F1F1" height="36.3887" rx="12.5" ry="12.5" style="stroke:#181818;stroke-width:0.5;" width="146" x="328.5" y="730.1667"/><text fill="#000000" font-family="sans-serif" font-size="12" lengthAdjust="spacing" textLength="126" x="338.5" y="753.9187">&#35843;&#29992;&#30701;&#20449;&#32593;&#20851;&#21457;&#36865; code</text><rect fill="#F1F1F1" height="36.3887" rx="12.5" ry="12.5" style="stroke:#181818;stroke-width:0.5;" width="127" x="338" y="786.5554"/><text fill="#000000" font-family="sans-serif" font-size="12" lengthAdjust="spacing" textLength="107" x="348" y="810.3074">&#36820;&#22238; "&#39564;&#35777;&#30721;&#24050;&#21457;&#36865;"</text><ellipse cx="401.5" cy="853.9441" fill="none" rx="11" ry="11" style="stroke:#222222;stroke-width:1.0;"/><ellipse cx="401.5" cy="853.9441" fill="#222222" rx="6" ry="6" style="stroke:#222222;stroke-width:1.0;"/><rect fill="none" height="136.8975" style="stroke:#000000;stroke-width:1.5;" width="316" x="113" y="886.9441"/><path d="M151,886.9441 L151,899.0642 L141,909.0642 L113,909.0642 " fill="none" style="stroke:#000000;stroke-width:1.5;"/><text fill="#000000" font-family="sans-serif" font-size="14" lengthAdjust="spacing" textLength="28" x="116" y="903.988">&#29992;&#25143;</text><rect fill="#F1F1F1" height="36.3887" rx="12.5" ry="12.5" style="stroke:#181818;stroke-width:0.5;" width="296" x="123" y="919.0642"/><text fill="#000000" font-family="sans-serif" font-size="12" lengthAdjust="spacing" textLength="276" x="133" y="942.8162">&#25910;&#21040;&#30701;&#20449;&#39564;&#35777;&#30721;&#21518;&#65292;&#22312;&#30331;&#24405;&#30028;&#38754;&#36755;&#20837;&#25163;&#26426;&#21495;&#19982;&#39564;&#35777;&#30721;</text><rect fill="#F1F1F1" height="36.3887" rx="12.5" ry="12.5" style="stroke:#181818;stroke-width:0.5;" width="196" x="173" y="975.4529"/><text fill="#000000" font-family="sans-serif" font-size="12" lengthAdjust="spacing" textLength="176" x="183" y="999.2048">&#28857;&#20987;&#8220;&#30331;&#24405;&#8221;&#25353;&#38062;&#65292;&#21457;&#20986; /login &#35831;&#27714;</text><rect fill="none" height="1289.0129" style="stroke:#000000;stroke-width:1.5;" width="520" x="11" y="1033.8416"/><path d="M119,1033.8416 L119,1045.9617 L109,1055.9617 L11,1055.9617 " fill="none" style="stroke:#000000;stroke-width:1.5;"/><text fill="#000000" font-family="sans-serif" font-size="14" lengthAdjust="spacing" textLength="98" x="14" y="1050.8855">&#26657;&#39564;&#19982;&#30331;&#24405;&#26381;&#21153;</text><rect fill="#F1F1F1" height="36.3887" rx="12.5" ry="12.5" style="stroke:#181818;stroke-width:0.5;" width="202" x="170" y="1072.9617"/><text fill="#000000" font-family="sans-serif" font-size="12" lengthAdjust="spacing" textLength="182" x="180" y="1096.7136">&#26657;&#39564;&#35831;&#27714;&#21442;&#25968; phone &#19982; code &#38750;&#31354;</text><rect fill="#F1F1F1" height="36.3887" rx="12.5" ry="12.5" style="stroke:#181818;stroke-width:0.5;" width="103" x="219.5" y="1178.8618"/><text fill="#000000" font-family="sans-serif" font-size="12" lengthAdjust="spacing" textLength="83" x="229.5" y="1202.6138">&#36820;&#22238; "&#21442;&#25968;&#38169;&#35823;"</text><ellipse cx="271" cy="1253.5562" fill="none" rx="11" ry="11" style="stroke:#222222;stroke-width:1.0;"/><ellipse cx="271" cy="1253.5562" fill="#222222" rx="6" ry="6" style="stroke:#222222;stroke-width:1.0;"/><polygon fill="#F1F1F1" points="240.5,1129.3503,301.5,1129.3503,313.5,1141.3503,301.5,1153.3503,240.5,1153.3503,228.5,1141.3503,240.5,1129.3503" style="stroke:#181818;stroke-width:0.5;"/><text fill="#000000" font-family="sans-serif" font-size="11" lengthAdjust="spacing" textLength="11" x="275" y="1165.9563">&#26159;</text><text fill="#000000" font-family="sans-serif" font-size="11" lengthAdjust="spacing" textLength="61" x="240.5" y="1146.4448">&#21442;&#25968;&#19981;&#23436;&#25972;?</text><rect fill="#F1F1F1" height="36.3887" rx="12.5" ry="12.5" style="stroke:#181818;stroke-width:0.5;" width="357" x="92.5" y="1306.5562"/><text fill="#000000" font-family="sans-serif" font-size="12" lengthAdjust="spacing" textLength="337" x="102.5" y="1330.3081">&#20174; Redis &#33719;&#21462;&#38190; "LOGIN_CODE_{phone}" &#30340;&#20540; = cachedCode</text><rect fill="#F1F1F1" height="36.3887" rx="12.5" ry="12.5" style="stroke:#181818;stroke-width:0.5;" width="199" x="171.5" y="1412.4563"/><text fill="#000000" font-family="sans-serif" font-size="12" lengthAdjust="spacing" textLength="179" x="181.5" y="1436.2083">&#36820;&#22238; "&#39564;&#35777;&#30721;&#24050;&#22833;&#25928;&#65292;&#35831;&#37325;&#26032;&#33719;&#21462;"</text><ellipse cx="271" cy="1487.1506" fill="none" rx="11" ry="11" style="stroke:#222222;stroke-width:1.0;"/><ellipse cx="271" cy="1487.1506" fill="#222222" rx="6" ry="6" style="stroke:#222222;stroke-width:1.0;"/><polygon fill="#F1F1F1" points="219.5,1362.9448,322.5,1362.9448,334.5,1374.9448,322.5,1386.9448,219.5,1386.9448,207.5,1374.9448,219.5,1362.9448" style="stroke:#181818;stroke-width:0.5;"/><text fill="#000000" font-family="sans-serif" font-size="11" lengthAdjust="spacing" textLength="11" x="275" y="1399.5508">&#26159;</text><text fill="#000000" font-family="sans-serif" font-size="11" lengthAdjust="spacing" textLength="103" x="219.5" y="1380.0393">cachedCode &#19981;&#23384;&#22312;?</text><rect fill="#F1F1F1" height="36.3887" rx="12.5" ry="12.5" style="stroke:#181818;stroke-width:0.5;" width="115" x="213.5" y="1589.6621"/><text fill="#000000" font-family="sans-serif" font-size="12" lengthAdjust="spacing" textLength="95" x="223.5" y="1613.4141">&#36820;&#22238; "&#39564;&#35777;&#30721;&#38169;&#35823;"</text><ellipse cx="271" cy="1664.3564" fill="none" rx="11" ry="11" style="stroke:#222222;stroke-width:1.0;"/><ellipse cx="271" cy="1664.3564" fill="#222222" rx="6" ry="6" style="stroke:#222222;stroke-width:1.0;"/><polygon fill="#F1F1F1" points="191,1540.1506,351,1540.1506,363,1552.1506,351,1564.1506,191,1564.1506,179,1552.1506,191,1540.1506" style="stroke:#181818;stroke-width:0.5;"/><text fill="#000000" font-family="sans-serif" font-size="11" lengthAdjust="spacing" textLength="11" x="275" y="1576.7566">&#26159;</text><text fill="#000000" font-family="sans-serif" font-size="11" lengthAdjust="spacing" textLength="160" x="191" y="1557.2451">cachedCode &#8800; &#21069;&#31471;&#25552;&#20132;&#30340; code</text><rect fill="#F1F1F1" height="36.3887" rx="12.5" ry="12.5" style="stroke:#181818;stroke-width:0.5;" width="247" x="147.5" y="1717.3564"/><text fill="#000000" font-family="sans-serif" font-size="12" lengthAdjust="spacing" textLength="227" x="157.5" y="1741.1084">&#21024;&#38500; Redis &#20013;&#30340; "LOGIN_CODE_{phone}"</text><rect fill="#F1F1F1" height="36.3887" rx="12.5" ry="12.5" style="stroke:#181818;stroke-width:0.5;" width="197" x="172.5" y="1773.7451"/><text fill="#000000" font-family="sans-serif" font-size="12" lengthAdjust="spacing" textLength="177" x="182.5" y="1797.4971">&#22312;&#25968;&#25454;&#24211; user &#34920;&#20013;&#26597;&#35810;&#35813; phone</text><polygon fill="#F1F1F1" points="239,1830.1338,303,1830.1338,315,1842.1338,303,1854.1338,239,1854.1338,227,1842.1338,239,1830.1338" style="stroke:#181818;stroke-width:0.5;"/><text fill="#000000" font-family="sans-serif" font-size="11" lengthAdjust="spacing" textLength="64" x="239" y="1847.2283">user &#19981;&#23384;&#22312;?</text><text fill="#000000" font-family="sans-serif" font-size="11" lengthAdjust="spacing" textLength="11" x="216" y="1839.7168">&#26159;</text><text fill="#000000" font-family="sans-serif" font-size="11" lengthAdjust="spacing" textLength="11" x="315" y="1839.7168">&#21542;</text><rect fill="#F1F1F1" height="36.3887" rx="12.5" ry="12.5" style="stroke:#181818;stroke-width:0.5;" width="188" x="84.5" y="1864.1338"/><text fill="#000000" font-family="sans-serif" font-size="12" lengthAdjust="spacing" textLength="168" x="94.5" y="1887.8857">&#21019;&#24314;&#26032;&#29992;&#25143;&#35760;&#24405;&#65292;&#24182;&#25554;&#20837;&#25968;&#25454;&#24211;</text><rect fill="#F1F1F1" height="36.3887" rx="12.5" ry="12.5" style="stroke:#181818;stroke-width:0.5;" width="154" x="101.5" y="1920.5225"/><text fill="#000000" font-family="sans-serif" font-size="12" lengthAdjust="spacing" textLength="134" x="111.5" y="1944.2744">&#33719;&#21462;&#26032;&#25554;&#20837;&#29992;&#25143;&#30340; userId</text><rect fill="#F1F1F1" height="36.3887" rx="12.5" ry="12.5" style="stroke:#181818;stroke-width:0.5;" width="142" x="292.5" y="1864.1338"/><text fill="#000000" font-family="sans-serif" font-size="12" lengthAdjust="spacing" textLength="122" x="302.5" y="1887.8857">&#33719;&#21462;&#29616;&#26377;&#29992;&#25143;&#30340; userId</text><polygon fill="#F1F1F1" points="271,1962.9111,283,1974.9111,271,1986.9111,259,1974.9111,271,1962.9111" style="stroke:#181818;stroke-width:0.5;"/><rect fill="#F1F1F1" height="36.3887" rx="12.5" ry="12.5" style="stroke:#181818;stroke-width:0.5;" width="340" x="101" y="2006.9111"/><text fill="#000000" font-family="sans-serif" font-size="12" lengthAdjust="spacing" textLength="320" x="111" y="2030.6631">&#26500;&#36896; UserDTO &#23545;&#35937;&#65288;&#21253;&#21547; userId&#12289;nickName&#12289;avatar &#31561;&#65289;</text><rect fill="#F1F1F1" height="36.3887" rx="12.5" ry="12.5" style="stroke:#181818;stroke-width:0.5;" width="261" x="140.5" y="2063.2998"/><text fill="#000000" font-family="sans-serif" font-size="12" lengthAdjust="spacing" textLength="241" x="150.5" y="2087.0518">&#35843;&#29992; RedisIdWorker &#29983;&#25104;&#20840;&#23616;&#21807;&#19968; long &#22411; ID</text><rect fill="#F1F1F1" height="36.3887" rx="12.5" ry="12.5" style="stroke:#181818;stroke-width:0.5;" width="221" x="160.5" y="2119.6885"/><text fill="#000000" font-family="sans-serif" font-size="12" lengthAdjust="spacing" textLength="201" x="170.5" y="2143.4404">&#23558; long &#22411; ID &#36716;&#20026;&#23383;&#31526;&#20018;&#65292;&#20316;&#20026; token</text><rect fill="#F1F1F1" height="36.3887" rx="12.5" ry="12.5" style="stroke:#181818;stroke-width:0.5;" width="500" x="21" y="2176.0771"/><text fill="#000000" font-family="sans-serif" font-size="12" lengthAdjust="spacing" textLength="480" x="31" y="2199.8291">&#23558; UserDTO &#24207;&#21015;&#21270;&#20026; JSON&#65292;&#24182;&#20889;&#20837; Redis&#65292;&#38190; = "LOGIN_USER_{token}", TTL=30 &#20998;&#38047;</text><rect fill="#F1F1F1" height="36.3887" rx="12.5" ry="12.5" style="stroke:#181818;stroke-width:0.5;" width="77" x="232.5" y="2232.4658"/><text fill="#000000" font-family="sans-serif" font-size="12" lengthAdjust="spacing" textLength="57" x="242.5" y="2256.2178">&#36820;&#22238; token</text><ellipse cx="271" cy="2299.8545" fill="none" rx="11" ry="11" style="stroke:#222222;stroke-width:1.0;"/><ellipse cx="271" cy="2299.8545" fill="#222222" rx="6" ry="6" style="stroke:#222222;stroke-width:1.0;"/><rect fill="none" height="80.5088" style="stroke:#000000;stroke-width:1.5;" width="313" x="114.5" y="2332.8545"/><path d="M152.5,2332.8545 L152.5,2344.9746 L142.5,2354.9746 L114.5,2354.9746 " fill="none" style="stroke:#000000;stroke-width:1.5;"/><text fill="#000000" font-family="sans-serif" font-size="14" lengthAdjust="spacing" textLength="28" x="117.5" y="2349.8984">&#29992;&#25143;</text><rect fill="#F1F1F1" height="36.3887" rx="12.5" ry="12.5" style="stroke:#181818;stroke-width:0.5;" width="293" x="124.5" y="2364.9746"/><text fill="#000000" font-family="sans-serif" font-size="12" lengthAdjust="spacing" textLength="273" x="134.5" y="2388.7266">&#23458;&#25143;&#31471;&#25910;&#21040; token&#65292;&#23558;&#20854;&#20889;&#20837;&#21518;&#32493;&#35831;&#27714;&#22836;&#25110;&#26412;&#22320;&#23384;&#20648;</text><rect fill="none" height="878.6411" style="stroke:#000000;stroke-width:1.5;" width="427" x="57.5" y="2423.3633"/><path d="M137.5,2423.3633 L137.5,2435.4834 L127.5,2445.4834 L57.5,2445.4834 " fill="none" style="stroke:#000000;stroke-width:1.5;"/><text fill="#000000" font-family="sans-serif" font-size="14" lengthAdjust="spacing" textLength="70" x="60.5" y="2440.4072">&#37492;&#26435;&#36807;&#28388;&#22120;</text><rect fill="#F1F1F1" height="36.3887" rx="12.5" ry="12.5" style="stroke:#181818;stroke-width:0.5;" width="152" x="195" y="2462.4834"/><text fill="#000000" font-family="sans-serif" font-size="12" lengthAdjust="spacing" textLength="132" x="205" y="2486.2354">&#25318;&#25130;&#25152;&#26377;&#38656;&#35201;&#37492;&#26435;&#30340;&#35831;&#27714;</text><rect fill="#F1F1F1" height="36.3887" rx="12.5" ry="12.5" style="stroke:#181818;stroke-width:0.5;" width="137" x="202.5" y="2518.8721"/><text fill="#000000" font-family="sans-serif" font-size="12" lengthAdjust="spacing" textLength="117" x="212.5" y="2542.624">&#20174;&#35831;&#27714;&#22836;&#20013;&#25552;&#21462; token</text><rect fill="#F1F1F1" height="36.3887" rx="12.5" ry="12.5" style="stroke:#181818;stroke-width:0.5;" width="151" x="195.5" y="2624.7722"/><text fill="#000000" font-family="sans-serif" font-size="12" lengthAdjust="spacing" textLength="131" x="205.5" y="2648.5242">&#36820;&#22238; "&#26410;&#30331;&#24405;&#65292;&#35831;&#20808;&#30331;&#24405;"</text><ellipse cx="271" cy="2699.4666" fill="none" rx="11" ry="11" style="stroke:#222222;stroke-width:1.0;"/><ellipse cx="271" cy="2699.4666" fill="#222222" rx="6" ry="6" style="stroke:#222222;stroke-width:1.0;"/><polygon fill="#F1F1F1" points="242.5,2575.2607,299.5,2575.2607,311.5,2587.2607,299.5,2599.2607,242.5,2599.2607,230.5,2587.2607,242.5,2575.2607" style="stroke:#181818;stroke-width:0.5;"/><text fill="#000000" font-family="sans-serif" font-size="11" lengthAdjust="spacing" textLength="11" x="275" y="2611.8667">&#26159;</text><text fill="#000000" font-family="sans-serif" font-size="11" lengthAdjust="spacing" textLength="57" x="242.5" y="2592.3552">token &#20026;&#31354;?</text><rect fill="#F1F1F1" height="36.3887" rx="12.5" ry="12.5" style="stroke:#181818;stroke-width:0.5;" width="407" x="67.5" y="2752.4666"/><text fill="#000000" font-family="sans-serif" font-size="12" lengthAdjust="spacing" textLength="387" x="77.5" y="2776.2185">&#20197; "LOGIN_USER_{token}" &#20026;&#38190;&#65292;&#20174; Redis &#33719;&#21462; JSON &#25968;&#25454; = userJson</text><rect fill="#F1F1F1" height="36.3887" rx="12.5" ry="12.5" style="stroke:#181818;stroke-width:0.5;" width="187" x="177.5" y="2858.3667"/><text fill="#000000" font-family="sans-serif" font-size="12" lengthAdjust="spacing" textLength="167" x="187.5" y="2882.1187">&#36820;&#22238; "&#30331;&#24405;&#24050;&#36807;&#26399;&#65292;&#35831;&#37325;&#26032;&#30331;&#24405;"</text><ellipse cx="271" cy="2933.061" fill="none" rx="11" ry="11" style="stroke:#222222;stroke-width:1.0;"/><ellipse cx="271" cy="2933.061" fill="#222222" rx="6" ry="6" style="stroke:#222222;stroke-width:1.0;"/><polygon fill="#F1F1F1" points="227.5,2808.8552,314.5,2808.8552,326.5,2820.8552,314.5,2832.8552,227.5,2832.8552,215.5,2820.8552,227.5,2808.8552" style="stroke:#181818;stroke-width:0.5;"/><text fill="#000000" font-family="sans-serif" font-size="11" lengthAdjust="spacing" textLength="11" x="275" y="2845.4612">&#26159;</text><text fill="#000000" font-family="sans-serif" font-size="11" lengthAdjust="spacing" textLength="87" x="227.5" y="2825.9497">userJson &#19981;&#23384;&#22312;?</text><rect fill="#F1F1F1" height="36.3887" rx="12.5" ry="12.5" style="stroke:#181818;stroke-width:0.5;" width="193" x="174.5" y="2986.061"/><text fill="#000000" font-family="sans-serif" font-size="12" lengthAdjust="spacing" textLength="173" x="184.5" y="3009.813">&#21453;&#24207;&#21015;&#21270; userJson &#20026; UserDTO</text><rect fill="#F1F1F1" height="36.3887" rx="12.5" ry="12.5" style="stroke:#181818;stroke-width:0.5;" width="186" x="178" y="3042.4497"/><text fill="#000000" font-family="sans-serif" font-size="12" lengthAdjust="spacing" textLength="166" x="188" y="3066.2017">&#23558; UserDTO &#23384;&#20837; ThreadLocal</text><rect fill="#F1F1F1" height="36.3887" rx="12.5" ry="12.5" style="stroke:#181818;stroke-width:0.5;" width="327" x="107.5" y="3098.8384"/><text fill="#000000" font-family="sans-serif" font-size="12" lengthAdjust="spacing" textLength="307" x="117.5" y="3122.5903">&#32493;&#26399; Redis &#20013; "LOGIN_USER_{token}" &#30340; TTL &#33267; 30 &#20998;&#38047;</text><rect fill="#F1F1F1" height="36.3887" rx="12.5" ry="12.5" style="stroke:#181818;stroke-width:0.5;" width="152" x="195" y="3155.2271"/><text fill="#000000" font-family="sans-serif" font-size="12" lengthAdjust="spacing" textLength="132" x="205" y="3178.979">&#25918;&#34892;&#35831;&#27714;&#33267;&#20855;&#20307;&#19994;&#21153;&#36923;&#36753;</text><rect fill="#F1F1F1" height="36.3887" rx="12.5" ry="12.5" style="stroke:#181818;stroke-width:0.5;" width="294" x="124" y="3211.6157"/><text fill="#000000" font-family="sans-serif" font-size="12" lengthAdjust="spacing" textLength="274" x="134" y="3235.3677">&#19994;&#21153;&#25191;&#34892;&#23436;&#25104;&#21518;&#65292;&#28165;&#29702; ThreadLocal &#20013;&#30340; UserDTO</text><ellipse cx="271" cy="3279.0044" fill="none" rx="11" ry="11" style="stroke:#222222;stroke-width:1.0;"/><ellipse cx="271" cy="3279.0044" fill="#222222" rx="6" ry="6" style="stroke:#222222;stroke-width:1.0;"/><line style="stroke:#181818;stroke-width:1.0;" x1="271" x2="271" y1="63.1201" y2="83.1201"/><polygon fill="#181818" points="267,73.1201,271,83.1201,275,73.1201,271,77.1201" style="stroke:#181818;stroke-width:1.0;"/><line style="stroke:#181818;stroke-width:1.0;" x1="271" x2="271" y1="119.5088" y2="139.5088"/><polygon fill="#181818" points="267,129.5088,271,139.5088,275,129.5088,271,133.5088" style="stroke:#181818;stroke-width:1.0;"/><line style="stroke:#181818;stroke-width:1.0;" x1="140.5" x2="140.5" y1="363.7949" y2="383.7949"/><polygon fill="#181818" points="136.5,373.7949,140.5,383.7949,144.5,373.7949,140.5,377.7949" style="stroke:#181818;stroke-width:1.0;"/><line style="stroke:#181818;stroke-width:1.0;" x1="401.5" x2="401.5" y1="469.6951" y2="497.0007"/><polygon fill="#181818" points="397.5,487.0007,401.5,497.0007,405.5,487.0007,401.5,491.0007" style="stroke:#181818;stroke-width:1.0;"/><line style="stroke:#181818;stroke-width:1.0;" x1="401.5" x2="401.5" y1="407.7949" y2="433.3064"/><polygon fill="#181818" points="397.5,423.3064,401.5,433.3064,405.5,423.3064,401.5,427.3064" style="stroke:#181818;stroke-width:1.0;"/><line style="stroke:#181818;stroke-width:1.0;" x1="455.5" x2="499" y1="395.7949" y2="395.7949"/><polygon fill="#181818" points="495,467.0007,499,477.0007,503,467.0007,499,471.0007" style="stroke:#181818;stroke-width:1.0;"/><line style="stroke:#181818;stroke-width:1.0;" x1="499" x2="499" y1="395.7949" y2="541.0007"/><line style="stroke:#181818;stroke-width:1.0;" x1="499" x2="401.5" y1="541.0007" y2="541.0007"/><line style="stroke:#181818;stroke-width:1.0;" x1="401.5" x2="401.5" y1="541.0007" y2="561.0007"/><polygon fill="#181818" points="397.5,551.0007,401.5,561.0007,405.5,551.0007,401.5,555.0007" style="stroke:#181818;stroke-width:1.0;"/><line style="stroke:#181818;stroke-width:1.0;" x1="401.5" x2="401.5" y1="363.7949" y2="383.7949"/><polygon fill="#181818" points="397.5,373.7949,401.5,383.7949,405.5,373.7949,401.5,377.7949" style="stroke:#181818;stroke-width:1.0;"/><line style="stroke:#181818;stroke-width:1.0;" x1="401.5" x2="401.5" y1="597.3894" y2="617.3894"/><polygon fill="#181818" points="397.5,607.3894,401.5,617.3894,405.5,607.3894,401.5,611.3894" style="stroke:#181818;stroke-width:1.0;"/><line style="stroke:#181818;stroke-width:1.0;" x1="401.5" x2="401.5" y1="653.7781" y2="673.7781"/><polygon fill="#181818" points="397.5,663.7781,401.5,673.7781,405.5,663.7781,401.5,667.7781" style="stroke:#181818;stroke-width:1.0;"/><line style="stroke:#181818;stroke-width:1.0;" x1="401.5" x2="401.5" y1="710.1667" y2="730.1667"/><polygon fill="#181818" points="397.5,720.1667,401.5,730.1667,405.5,720.1667,401.5,724.1667" style="stroke:#181818;stroke-width:1.0;"/><line style="stroke:#181818;stroke-width:1.0;" x1="401.5" x2="401.5" y1="766.5554" y2="786.5554"/><polygon fill="#181818" points="397.5,776.5554,401.5,786.5554,405.5,776.5554,401.5,780.5554" style="stroke:#181818;stroke-width:1.0;"/><line style="stroke:#181818;stroke-width:1.0;" x1="401.5" x2="401.5" y1="822.9441" y2="842.9441"/><polygon fill="#181818" points="397.5,832.9441,401.5,842.9441,405.5,832.9441,401.5,836.9441" style="stroke:#181818;stroke-width:1.0;"/><line style="stroke:#181818;stroke-width:1.0;" x1="234" x2="140.5" y1="305.4063" y2="305.4063"/><line style="stroke:#181818;stroke-width:1.0;" x1="140.5" x2="140.5" y1="305.4063" y2="327.4063"/><polygon fill="#181818" points="136.5,317.4063,140.5,327.4063,144.5,317.4063,140.5,321.4063" style="stroke:#181818;stroke-width:1.0;"/><line style="stroke:#181818;stroke-width:1.0;" x1="308" x2="401.5" y1="305.4063" y2="305.4063"/><line style="stroke:#181818;stroke-width:1.0;" x1="401.5" x2="401.5" y1="305.4063" y2="327.4063"/><polygon fill="#181818" points="397.5,317.4063,401.5,327.4063,405.5,317.4063,401.5,321.4063" style="stroke:#181818;stroke-width:1.0;"/><line style="stroke:#181818;stroke-width:1.0;" x1="271" x2="271" y1="273.4063" y2="293.4063"/><polygon fill="#181818" points="267,283.4063,271,293.4063,275,283.4063,271,287.4063" style="stroke:#181818;stroke-width:1.0;"/><line style="stroke:#181818;stroke-width:1.0;" x1="271" x2="271" y1="175.8975" y2="237.0176"/><polygon fill="#181818" points="267,227.0176,271,237.0176,275,227.0176,271,231.0176" style="stroke:#181818;stroke-width:1.0;"/><line style="stroke:#181818;stroke-width:1.0;" x1="271" x2="271" y1="955.4529" y2="975.4529"/><polygon fill="#181818" points="267,965.4529,271,975.4529,275,965.4529,271,969.4529" style="stroke:#181818;stroke-width:1.0;"/><line style="stroke:#181818;stroke-width:1.0;" x1="271" x2="271" y1="1215.2505" y2="1242.5562"/><polygon fill="#181818" points="267,1232.5562,271,1242.5562,275,1232.5562,271,1236.5562" style="stroke:#181818;stroke-width:1.0;"/><line style="stroke:#181818;stroke-width:1.0;" x1="271" x2="271" y1="1153.3503" y2="1178.8618"/><polygon fill="#181818" points="267,1168.8618,271,1178.8618,275,1168.8618,271,1172.8618" style="stroke:#181818;stroke-width:1.0;"/><line style="stroke:#181818;stroke-width:1.0;" x1="313.5" x2="332.5" y1="1141.3503" y2="1141.3503"/><polygon fill="#181818" points="328.5,1212.5562,332.5,1222.5562,336.5,1212.5562,332.5,1216.5562" style="stroke:#181818;stroke-width:1.0;"/><line style="stroke:#181818;stroke-width:1.0;" x1="332.5" x2="332.5" y1="1141.3503" y2="1286.5562"/><line style="stroke:#181818;stroke-width:1.0;" x1="332.5" x2="271" y1="1286.5562" y2="1286.5562"/><line style="stroke:#181818;stroke-width:1.0;" x1="271" x2="271" y1="1286.5562" y2="1306.5562"/><polygon fill="#181818" points="267,1296.5562,271,1306.5562,275,1296.5562,271,1300.5562" style="stroke:#181818;stroke-width:1.0;"/><line style="stroke:#181818;stroke-width:1.0;" x1="271" x2="271" y1="1109.3503" y2="1129.3503"/><polygon fill="#181818" points="267,1119.3503,271,1129.3503,275,1119.3503,271,1123.3503" style="stroke:#181818;stroke-width:1.0;"/><line style="stroke:#181818;stroke-width:1.0;" x1="271" x2="271" y1="1448.845" y2="1476.1506"/><polygon fill="#181818" points="267,1466.1506,271,1476.1506,275,1466.1506,271,1470.1506" style="stroke:#181818;stroke-width:1.0;"/><line style="stroke:#181818;stroke-width:1.0;" x1="271" x2="271" y1="1386.9448" y2="1412.4563"/><polygon fill="#181818" points="267,1402.4563,271,1412.4563,275,1402.4563,271,1406.4563" style="stroke:#181818;stroke-width:1.0;"/><line style="stroke:#181818;stroke-width:1.0;" x1="334.5" x2="380.5" y1="1374.9448" y2="1374.9448"/><polygon fill="#181818" points="376.5,1446.1506,380.5,1456.1506,384.5,1446.1506,380.5,1450.1506" style="stroke:#181818;stroke-width:1.0;"/><line style="stroke:#181818;stroke-width:1.0;" x1="380.5" x2="380.5" y1="1374.9448" y2="1520.1506"/><line style="stroke:#181818;stroke-width:1.0;" x1="380.5" x2="271" y1="1520.1506" y2="1520.1506"/><line style="stroke:#181818;stroke-width:1.0;" x1="271" x2="271" y1="1520.1506" y2="1540.1506"/><polygon fill="#181818" points="267,1530.1506,271,1540.1506,275,1530.1506,271,1534.1506" style="stroke:#181818;stroke-width:1.0;"/><line style="stroke:#181818;stroke-width:1.0;" x1="271" x2="271" y1="1342.9448" y2="1362.9448"/><polygon fill="#181818" points="267,1352.9448,271,1362.9448,275,1352.9448,271,1356.9448" style="stroke:#181818;stroke-width:1.0;"/><line style="stroke:#181818;stroke-width:1.0;" x1="271" x2="271" y1="1626.0508" y2="1653.3564"/><polygon fill="#181818" points="267,1643.3564,271,1653.3564,275,1643.3564,271,1647.3564" style="stroke:#181818;stroke-width:1.0;"/><line style="stroke:#181818;stroke-width:1.0;" x1="271" x2="271" y1="1564.1506" y2="1589.6621"/><polygon fill="#181818" points="267,1579.6621,271,1589.6621,275,1579.6621,271,1583.6621" style="stroke:#181818;stroke-width:1.0;"/><line style="stroke:#181818;stroke-width:1.0;" x1="363" x2="375" y1="1552.1506" y2="1552.1506"/><polygon fill="#181818" points="371,1623.3564,375,1633.3564,379,1623.3564,375,1627.3564" style="stroke:#181818;stroke-width:1.0;"/><line style="stroke:#181818;stroke-width:1.0;" x1="375" x2="375" y1="1552.1506" y2="1697.3564"/><line style="stroke:#181818;stroke-width:1.0;" x1="375" x2="271" y1="1697.3564" y2="1697.3564"/><line style="stroke:#181818;stroke-width:1.0;" x1="271" x2="271" y1="1697.3564" y2="1717.3564"/><polygon fill="#181818" points="267,1707.3564,271,1717.3564,275,1707.3564,271,1711.3564" style="stroke:#181818;stroke-width:1.0;"/><line style="stroke:#181818;stroke-width:1.0;" x1="271" x2="271" y1="1753.7451" y2="1773.7451"/><polygon fill="#181818" points="267,1763.7451,271,1773.7451,275,1763.7451,271,1767.7451" style="stroke:#181818;stroke-width:1.0;"/><line style="stroke:#181818;stroke-width:1.0;" x1="178.5" x2="178.5" y1="1900.5225" y2="1920.5225"/><polygon fill="#181818" points="174.5,1910.5225,178.5,1920.5225,182.5,1910.5225,178.5,1914.5225" style="stroke:#181818;stroke-width:1.0;"/><line style="stroke:#181818;stroke-width:1.0;" x1="227" x2="178.5" y1="1842.1338" y2="1842.1338"/><line style="stroke:#181818;stroke-width:1.0;" x1="178.5" x2="178.5" y1="1842.1338" y2="1864.1338"/><polygon fill="#181818" points="174.5,1854.1338,178.5,1864.1338,182.5,1854.1338,178.5,1858.1338" style="stroke:#181818;stroke-width:1.0;"/><line style="stroke:#181818;stroke-width:1.0;" x1="315" x2="363.5" y1="1842.1338" y2="1842.1338"/><line style="stroke:#181818;stroke-width:1.0;" x1="363.5" x2="363.5" y1="1842.1338" y2="1864.1338"/><polygon fill="#181818" points="359.5,1854.1338,363.5,1864.1338,367.5,1854.1338,363.5,1858.1338" style="stroke:#181818;stroke-width:1.0;"/><line style="stroke:#181818;stroke-width:1.0;" x1="178.5" x2="178.5" y1="1956.9111" y2="1974.9111"/><line style="stroke:#181818;stroke-width:1.0;" x1="178.5" x2="259" y1="1974.9111" y2="1974.9111"/><polygon fill="#181818" points="249,1970.9111,259,1974.9111,249,1978.9111,253,1974.9111" style="stroke:#181818;stroke-width:1.0;"/><line style="stroke:#181818;stroke-width:1.0;" x1="363.5" x2="363.5" y1="1900.5225" y2="1974.9111"/><line style="stroke:#181818;stroke-width:1.0;" x1="363.5" x2="283" y1="1974.9111" y2="1974.9111"/><polygon fill="#181818" points="293,1970.9111,283,1974.9111,293,1978.9111,289,1974.9111" style="stroke:#181818;stroke-width:1.0;"/><line style="stroke:#181818;stroke-width:1.0;" x1="271" x2="271" y1="1810.1338" y2="1830.1338"/><polygon fill="#181818" points="267,1820.1338,271,1830.1338,275,1820.1338,271,1824.1338" style="stroke:#181818;stroke-width:1.0;"/><line style="stroke:#181818;stroke-width:1.0;" x1="271" x2="271" y1="1986.9111" y2="2006.9111"/><polygon fill="#181818" points="267,1996.9111,271,2006.9111,275,1996.9111,271,2000.9111" style="stroke:#181818;stroke-width:1.0;"/><line style="stroke:#181818;stroke-width:1.0;" x1="271" x2="271" y1="2043.2998" y2="2063.2998"/><polygon fill="#181818" points="267,2053.2998,271,2063.2998,275,2053.2998,271,2057.2998" style="stroke:#181818;stroke-width:1.0;"/><line style="stroke:#181818;stroke-width:1.0;" x1="271" x2="271" y1="2099.6885" y2="2119.6885"/><polygon fill="#181818" points="267,2109.6885,271,2119.6885,275,2109.6885,271,2113.6885" style="stroke:#181818;stroke-width:1.0;"/><line style="stroke:#181818;stroke-width:1.0;" x1="271" x2="271" y1="2156.0771" y2="2176.0771"/><polygon fill="#181818" points="267,2166.0771,271,2176.0771,275,2166.0771,271,2170.0771" style="stroke:#181818;stroke-width:1.0;"/><line style="stroke:#181818;stroke-width:1.0;" x1="271" x2="271" y1="2212.4658" y2="2232.4658"/><polygon fill="#181818" points="267,2222.4658,271,2232.4658,275,2222.4658,271,2226.4658" style="stroke:#181818;stroke-width:1.0;"/><line style="stroke:#181818;stroke-width:1.0;" x1="271" x2="271" y1="2268.8545" y2="2288.8545"/><polygon fill="#181818" points="267,2278.8545,271,2288.8545,275,2278.8545,271,2282.8545" style="stroke:#181818;stroke-width:1.0;"/><line style="stroke:#181818;stroke-width:1.0;" x1="271" x2="271" y1="1011.8416" y2="1072.9617"/><polygon fill="#181818" points="267,1062.9617,271,1072.9617,275,1062.9617,271,1066.9617" style="stroke:#181818;stroke-width:1.0;"/><line style="stroke:#181818;stroke-width:1.0;" x1="271" x2="271" y1="2498.8721" y2="2518.8721"/><polygon fill="#181818" points="267,2508.8721,271,2518.8721,275,2508.8721,271,2512.8721" style="stroke:#181818;stroke-width:1.0;"/><line style="stroke:#181818;stroke-width:1.0;" x1="271" x2="271" y1="2661.1609" y2="2688.4666"/><polygon fill="#181818" points="267,2678.4666,271,2688.4666,275,2678.4666,271,2682.4666" style="stroke:#181818;stroke-width:1.0;"/><line style="stroke:#181818;stroke-width:1.0;" x1="271" x2="271" y1="2599.2607" y2="2624.7722"/><polygon fill="#181818" points="267,2614.7722,271,2624.7722,275,2614.7722,271,2618.7722" style="stroke:#181818;stroke-width:1.0;"/><line style="stroke:#181818;stroke-width:1.0;" x1="311.5" x2="356.5" y1="2587.2607" y2="2587.2607"/><polygon fill="#181818" points="352.5,2658.4666,356.5,2668.4666,360.5,2658.4666,356.5,2662.4666" style="stroke:#181818;stroke-width:1.0;"/><line style="stroke:#181818;stroke-width:1.0;" x1="356.5" x2="356.5" y1="2587.2607" y2="2732.4666"/><line style="stroke:#181818;stroke-width:1.0;" x1="356.5" x2="271" y1="2732.4666" y2="2732.4666"/><line style="stroke:#181818;stroke-width:1.0;" x1="271" x2="271" y1="2732.4666" y2="2752.4666"/><polygon fill="#181818" points="267,2742.4666,271,2752.4666,275,2742.4666,271,2746.4666" style="stroke:#181818;stroke-width:1.0;"/><line style="stroke:#181818;stroke-width:1.0;" x1="271" x2="271" y1="2555.2607" y2="2575.2607"/><polygon fill="#181818" points="267,2565.2607,271,2575.2607,275,2565.2607,271,2569.2607" style="stroke:#181818;stroke-width:1.0;"/><line style="stroke:#181818;stroke-width:1.0;" x1="271" x2="271" y1="2894.7554" y2="2922.061"/><polygon fill="#181818" points="267,2912.061,271,2922.061,275,2912.061,271,2916.061" style="stroke:#181818;stroke-width:1.0;"/><line style="stroke:#181818;stroke-width:1.0;" x1="271" x2="271" y1="2832.8552" y2="2858.3667"/><polygon fill="#181818" points="267,2848.3667,271,2858.3667,275,2848.3667,271,2852.3667" style="stroke:#181818;stroke-width:1.0;"/><line style="stroke:#181818;stroke-width:1.0;" x1="326.5" x2="374.5" y1="2820.8552" y2="2820.8552"/><polygon fill="#181818" points="370.5,2892.061,374.5,2902.061,378.5,2892.061,374.5,2896.061" style="stroke:#181818;stroke-width:1.0;"/><line style="stroke:#181818;stroke-width:1.0;" x1="374.5" x2="374.5" y1="2820.8552" y2="2966.061"/><line style="stroke:#181818;stroke-width:1.0;" x1="374.5" x2="271" y1="2966.061" y2="2966.061"/><line style="stroke:#181818;stroke-width:1.0;" x1="271" x2="271" y1="2966.061" y2="2986.061"/><polygon fill="#181818" points="267,2976.061,271,2986.061,275,2976.061,271,2980.061" style="stroke:#181818;stroke-width:1.0;"/><line style="stroke:#181818;stroke-width:1.0;" x1="271" x2="271" y1="2788.8552" y2="2808.8552"/><polygon fill="#181818" points="267,2798.8552,271,2808.8552,275,2798.8552,271,2802.8552" style="stroke:#181818;stroke-width:1.0;"/><line style="stroke:#181818;stroke-width:1.0;" x1="271" x2="271" y1="3022.4497" y2="3042.4497"/><polygon fill="#181818" points="267,3032.4497,271,3042.4497,275,3032.4497,271,3036.4497" style="stroke:#181818;stroke-width:1.0;"/><line style="stroke:#181818;stroke-width:1.0;" x1="271" x2="271" y1="3078.8384" y2="3098.8384"/><polygon fill="#181818" points="267,3088.8384,271,3098.8384,275,3088.8384,271,3092.8384" style="stroke:#181818;stroke-width:1.0;"/><line style="stroke:#181818;stroke-width:1.0;" x1="271" x2="271" y1="3135.2271" y2="3155.2271"/><polygon fill="#181818" points="267,3145.2271,271,3155.2271,275,3145.2271,271,3149.2271" style="stroke:#181818;stroke-width:1.0;"/><line style="stroke:#181818;stroke-width:1.0;" x1="271" x2="271" y1="3191.6157" y2="3211.6157"/><polygon fill="#181818" points="267,3201.6157,271,3211.6157,275,3201.6157,271,3205.6157" style="stroke:#181818;stroke-width:1.0;"/><line style="stroke:#181818;stroke-width:1.0;" x1="271" x2="271" y1="3248.0044" y2="3268.0044"/><polygon fill="#181818" points="267,3258.0044,271,3268.0044,275,3258.0044,271,3262.0044" style="stroke:#181818;stroke-width:1.0;"/><line style="stroke:#181818;stroke-width:1.0;" x1="271" x2="271" y1="2401.3633" y2="2462.4834"/><polygon fill="#181818" points="267,2452.4834,271,2462.4834,275,2452.4834,271,2456.4834" style="stroke:#181818;stroke-width:1.0;"/><!--SRC=[ZLPHJnfP57xtLzpuP9DDjiccVT1qDnirZOtHZRNPHqDaMeak677tnJGPRS516K05BNPKS56f5GPRKn14_uixvyxCatzXpvtBm311aGV2tBdddEz-vplVPTwpiEXRz0NyH4_cgLGcIpq4Fy55NBT-zHlNMn0wef5rgbGXNhwxYkehbx1QknKLY6-Ouh9v6ZNKPJspV2lk3V0OI6n08gP_LN47h5R9pq71xnqCU0LYg6LwlZBGyxwdPxvPsfM7AZAiPHj8-kc_8Zqu8XE2rnSaPh98UaV7NuwCJGsE3mrFJGp_CVpxvDJI_4p0BxplvULzRqcVkIf3JkQ9Vtj25cS4F-cZdzGdrWv-i9iaVDudlGX9pyk85yAoeQOQIJWBWNdhGPWB2gGF4iUES1evCR9HCZ8sE47ebgpL5QG6r4keRq7k2wzCpx8qLJAAxBkLbk7Zk_XxyYlHAcjcEj4PQ1jOhRP6TuwW_CsulgQA2BaJPoK7zZRyrXdyNj_R5dmzUK2b17bEjBfixiQnkKt-oJHsgfMf7qfXQub0E8rIuAt0mx9cl6XhXzs7dyZavEYBPmIaiBbvu4hrGF_S5LYMvq-9VhBfo66KFg1MzOE2TfFLwniG-iufSCEsAMkU2rdZEpkssAAdJPPj4z5Fapz0Al6ohPI96EkwajVJDQYdz5JKt3jqJOnMYJNtD-QZEK4y30U7HYFcPf7bQapCNE2TpzzvN6Y60S2qFDerBXcEZiL1V8N9oo8N9HRZNJJtzlKlrTQey5rQHOPYbAOkkamBtsqcquQgtiyZnwBLOesvDM9bY6-xfxVPTdtt8uXNAAPfp_ICO3b52rzhZJ2GXKz8TnUGRItFdTEKXCmY9-WATBl4mNG1xwfy6yaGYCXeQJIUqAevH6on-KWSZ-CBf8oPpZKeqoe5LgGJNxRBAdbi1PMBKDqYVmU51M9aynY6TcceXuPwn3lVOjBQqur3a3v3hOeqSVaRnH9gZ0dpyWUDRp9XspMTisPHYa5y2mzby5d94U_0lIxA0_LOYIgHUw8S1D7zZwQO8M_mzT3aE46tDSwpTrSIH4EG-De8-qzSzlkcPySyVmduq_EF1-yoeXSYTrUH1d7SGJZF8zu_0mkpo0itH0ZbuLo4fAfLH38NyByZiBzEHePioj6_7Al4g9zfbIeKTlIpOwto3Md2Um1No69WLl0xWfgGgt6GTY2wpJQzUZq-nfbzo5dVl1wUc5go4jhE-ilJDckrzUOeQkdh0JU3uY7Z6kLisHeFPLXAOGWruB0hl5PeM4dkWahRL3a3fSJaiv9tcP8PkQ1x7uoRLLhBGJhVjAFrOogTqeY8_JKLqJXUvXknoxQtsLRHBCGa74-WB9m7Olgr7b70LVIlBWv0bLFkZdpm8IJnn-wMTTIHTrOLky8Qx38rguk43mKsZMdmLJ3WRvywjl9ez-98sHsFR2e7Jkjwt24WBZTrHXpbgxOCEmaJaQ429sSM18ztD33jcRFlgbe1GRHCgJCzR6fHcSHO_KxSwgJ9Q_odnDkBxo5KrkfRMcKNRorJh1dN6xO6h2N-luhTHJYDrlLAAo4z4NP2iysnxJWDoVyF]--></g></svg>