<?xml version="1.0" encoding="us-ascii" standalone="no"?><svg xmlns="http://www.w3.org/2000/svg" xmlns:xlink="http://www.w3.org/1999/xlink" contentStyleType="text/css" height="1353px" preserveAspectRatio="none" style="width:1140px;height:1353px;background:#FFFFFF;" version="1.1" viewBox="0 0 1140 1353" width="1140px" zoomAndPan="magnify"><defs/><g><rect fill="none" height="24.583" style="stroke:none;stroke-width:1.0;" width="1107.5" x="15" y="12.4551"/><ellipse cx="114" cy="52.0381" fill="#222222" rx="10" ry="10" style="stroke:#222222;stroke-width:1.0;"/><rect fill="#F1F1F1" height="36.3887" rx="12.5" ry="12.5" style="stroke:#181818;stroke-width:0.5;" width="186" x="21" y="82.0381"/><text fill="#000000" font-family="sans-serif" font-size="12" lengthAdjust="spacing" textLength="166" x="31" y="105.79">&#21457;&#36215;&#21830;&#25143;&#26597;&#35810;&#35831;&#27714;(merchantId)</text><line style="stroke:#000000;stroke-width:1.5;" x1="15" x2="15" y1="12.4551" y2="1341.0598"/><rect fill="#F1F1F1" height="36.3887" rx="12.5" ry="12.5" style="stroke:#181818;stroke-width:0.5;" width="223" x="599.125" y="138.4268"/><text fill="#000000" font-family="sans-serif" font-size="12" lengthAdjust="spacing" textLength="203" x="609.125" y="162.1787">&#26816;&#26597; &#24067;&#38534;&#36807;&#28388;&#22120; &#26159;&#21542;&#21253;&#21547; merchantId</text><rect fill="#F1F1F1" height="36.3887" rx="12.5" ry="12.5" style="stroke:#181818;stroke-width:0.5;" width="136" x="642.625" y="244.3269"/><text fill="#000000" font-family="sans-serif" font-size="12" lengthAdjust="spacing" textLength="116" x="652.625" y="268.0789">&#30452;&#25509;&#36820;&#22238;&#8220;&#21830;&#25143;&#19981;&#23384;&#22312;&#8221;</text><ellipse cx="710.625" cy="319.0212" fill="none" rx="11" ry="11" style="stroke:#222222;stroke-width:1.0;"/><ellipse cx="710.625" cy="319.0212" fill="#222222" rx="6" ry="6" style="stroke:#222222;stroke-width:1.0;"/><polygon fill="#F1F1F1" points="662.125,194.8154,759.125,194.8154,771.125,206.8154,759.125,218.8154,662.125,218.8154,650.125,206.8154,662.125,194.8154" style="stroke:#181818;stroke-width:0.5;"/><text fill="#000000" font-family="sans-serif" font-size="11" lengthAdjust="spacing" textLength="11" x="714.625" y="231.4214">&#26159;</text><text fill="#000000" font-family="sans-serif" font-size="11" lengthAdjust="spacing" textLength="97" x="662.125" y="211.9099">&#24067;&#38534;&#36807;&#28388;&#22120; &#19981;&#21253;&#21547;?</text><rect fill="#F1F1F1" height="36.3887" rx="12.5" ry="12.5" style="stroke:#181818;stroke-width:0.5;" width="287" x="567.125" y="372.0212"/><text fill="#000000" font-family="sans-serif" font-size="12" lengthAdjust="spacing" textLength="267" x="577.125" y="395.7732">&#20174; Redis &#35835;&#21462;&#32531;&#23384; &#32531;&#23384;Key="shop:" + merchantId</text><rect fill="#F1F1F1" height="36.3887" rx="12.5" ry="12.5" style="stroke:#181818;stroke-width:0.5;" width="92" x="664.625" y="477.9214"/><text fill="#000000" font-family="sans-serif" font-size="12" lengthAdjust="spacing" textLength="72" x="674.625" y="501.6733">&#36820;&#22238;&#32531;&#23384;&#25968;&#25454;</text><ellipse cx="710.625" cy="552.6157" fill="none" rx="11" ry="11" style="stroke:#222222;stroke-width:1.0;"/><ellipse cx="710.625" cy="552.6157" fill="#222222" rx="6" ry="6" style="stroke:#222222;stroke-width:1.0;"/><polygon fill="#F1F1F1" points="685.625,428.4099,735.625,428.4099,747.625,440.4099,735.625,452.4099,685.625,452.4099,673.625,440.4099,685.625,428.4099" style="stroke:#181818;stroke-width:0.5;"/><text fill="#000000" font-family="sans-serif" font-size="11" lengthAdjust="spacing" textLength="11" x="714.625" y="465.0159">&#26159;</text><text fill="#000000" font-family="sans-serif" font-size="11" lengthAdjust="spacing" textLength="50" x="685.625" y="445.5044">&#32531;&#23384;&#21629;&#20013;?</text><rect fill="#F1F1F1" height="36.3887" rx="12.5" ry="12.5" style="stroke:#181818;stroke-width:0.5;" width="240" x="590.625" y="605.6157"/><text fill="#000000" font-family="sans-serif" font-size="12" lengthAdjust="spacing" textLength="220" x="600.625" y="629.3677">&#23581;&#35797;&#33719;&#21462; &#20998;&#24067;&#24335;&#38145; lock:shop:merchantId</text><polygon fill="#F1F1F1" points="680.125,662.0044,741.125,662.0044,753.125,674.0044,741.125,686.0044,680.125,686.0044,668.125,674.0044,680.125,662.0044" style="stroke:#181818;stroke-width:0.5;"/><text fill="#000000" font-family="sans-serif" font-size="11" lengthAdjust="spacing" textLength="61" x="680.125" y="679.0989">&#33719;&#21462;&#38145;&#25104;&#21151;?</text><text fill="#000000" font-family="sans-serif" font-size="11" lengthAdjust="spacing" textLength="11" x="657.125" y="671.5874">&#26159;</text><text fill="#000000" font-family="sans-serif" font-size="11" lengthAdjust="spacing" textLength="11" x="753.125" y="671.5874">&#21542;</text><rect fill="#F1F1F1" height="36.3887" rx="12.5" ry="12.5" style="stroke:#181818;stroke-width:0.5;" width="146" x="407.25" y="696.0044"/><text fill="#000000" font-family="sans-serif" font-size="12" lengthAdjust="spacing" textLength="126" x="417.25" y="719.7563">&#20877;&#27425; &#20174; Redis &#35835;&#21462;&#32531;&#23384;</text><rect fill="#F1F1F1" height="36.3887" rx="12.5" ry="12.5" style="stroke:#181818;stroke-width:0.5;" width="92" x="434.25" y="801.9045"/><text fill="#000000" font-family="sans-serif" font-size="12" lengthAdjust="spacing" textLength="72" x="444.25" y="825.6565">&#36820;&#22238;&#32531;&#23384;&#25968;&#25454;</text><rect fill="#F1F1F1" height="36.3887" rx="12.5" ry="12.5" style="stroke:#181818;stroke-width:0.5;" width="95" x="432.75" y="867.7817"/><text fill="#000000" font-family="sans-serif" font-size="12" lengthAdjust="spacing" textLength="75" x="442.75" y="891.5337">&#37322;&#25918; &#20998;&#24067;&#24335;&#38145;</text><ellipse cx="480.25" cy="950.1704" fill="none" rx="11" ry="11" style="stroke:#222222;stroke-width:1.0;"/><ellipse cx="480.25" cy="950.1704" fill="#222222" rx="6" ry="6" style="stroke:#222222;stroke-width:1.0;"/><polygon fill="#F1F1F1" points="455.25,752.3931,505.25,752.3931,517.25,764.3931,505.25,776.3931,455.25,776.3931,443.25,764.3931,455.25,752.3931" style="stroke:#181818;stroke-width:0.5;"/><text fill="#000000" font-family="sans-serif" font-size="11" lengthAdjust="spacing" textLength="11" x="484.25" y="788.999">&#26159;</text><text fill="#000000" font-family="sans-serif" font-size="11" lengthAdjust="spacing" textLength="50" x="455.25" y="769.4875">&#32531;&#23384;&#21629;&#20013;?</text><rect fill="#F1F1F1" height="36.3887" rx="12.5" ry="12.5" style="stroke:#181818;stroke-width:0.5;" width="256" x="352.25" y="1027.6819"/><text fill="#000000" font-family="sans-serif" font-size="12" lengthAdjust="spacing" textLength="236" x="362.25" y="1051.4338">&#26597;&#35810;&#25968;&#25454;&#24211; shop &#34920; WHERE id=merchantId</text><polygon fill="#F1F1F1" points="426.25,1099.0706,534.25,1099.0706,546.25,1111.0706,534.25,1123.0706,426.25,1123.0706,414.25,1111.0706,426.25,1099.0706" style="stroke:#181818;stroke-width:0.5;"/><text fill="#000000" font-family="sans-serif" font-size="11" lengthAdjust="spacing" textLength="108" x="426.25" y="1116.165">&#25968;&#25454;&#24211;&#26597;&#35810; &#32467;&#26524;&#20026;&#31354;?</text><text fill="#000000" font-family="sans-serif" font-size="11" lengthAdjust="spacing" textLength="11" x="403.25" y="1108.6536">&#26159;</text><text fill="#000000" font-family="sans-serif" font-size="11" lengthAdjust="spacing" textLength="11" x="546.25" y="1108.6536">&#21542;</text><rect fill="#F1F1F1" height="36.3887" rx="12.5" ry="12.5" style="stroke:#181818;stroke-width:0.5;" width="233" x="217" y="1133.0706"/><text fill="#000000" font-family="sans-serif" font-size="12" lengthAdjust="spacing" textLength="213" x="227" y="1156.8225">&#21521; Redis &#20889;&#20837; &#31354;&#23545;&#35937; (&#30701;TTL, e.g. 60&#31186;)</text><rect fill="#F1F1F1" height="36.3887" rx="12.5" ry="12.5" style="stroke:#181818;stroke-width:0.5;" width="95" x="286" y="1191.8708"/><text fill="#000000" font-family="sans-serif" font-size="12" lengthAdjust="spacing" textLength="75" x="296" y="1215.6228">&#37322;&#25918; &#20998;&#24067;&#24335;&#38145;</text><rect fill="#F1F1F1" height="36.3887" rx="12.5" ry="12.5" style="stroke:#181818;stroke-width:0.5;" width="112" x="277.5" y="1250.6711"/><text fill="#000000" font-family="sans-serif" font-size="12" lengthAdjust="spacing" textLength="92" x="287.5" y="1274.4231">&#36820;&#22238;&#8220;&#21830;&#25143;&#19981;&#23384;&#22312;&#8221;</text><ellipse cx="333.5" cy="1318.0598" fill="none" rx="11" ry="11" style="stroke:#222222;stroke-width:1.0;"/><ellipse cx="333.5" cy="1318.0598" fill="#222222" rx="6" ry="6" style="stroke:#222222;stroke-width:1.0;"/><rect fill="#F1F1F1" height="36.3887" rx="12.5" ry="12.5" style="stroke:#181818;stroke-width:0.5;" width="314" x="470" y="1133.0706"/><text fill="#000000" font-family="sans-serif" font-size="12" lengthAdjust="spacing" textLength="294" x="480" y="1156.8225">&#21521; Redis &#20889;&#20837; &#23454;&#20307;&#25968;&#25454;, &#35774;&#32622;TTL=baseTTL + &#38543;&#26426;&#25238;&#21160;</text><rect fill="#F1F1F1" height="36.3887" rx="12.5" ry="12.5" style="stroke:#181818;stroke-width:0.5;" width="95" x="579.5" y="1191.8708"/><text fill="#000000" font-family="sans-serif" font-size="12" lengthAdjust="spacing" textLength="75" x="589.5" y="1215.6228">&#37322;&#25918; &#20998;&#24067;&#24335;&#38145;</text><rect fill="#F1F1F1" height="36.3887" rx="12.5" ry="12.5" style="stroke:#181818;stroke-width:0.5;" width="92" x="581" y="1250.6711"/><text fill="#000000" font-family="sans-serif" font-size="12" lengthAdjust="spacing" textLength="72" x="591" y="1274.4231">&#36820;&#22238;&#21830;&#25143;&#25968;&#25454;</text><ellipse cx="627" cy="1318.0598" fill="none" rx="11" ry="11" style="stroke:#222222;stroke-width:1.0;"/><ellipse cx="627" cy="1318.0598" fill="#222222" rx="6" ry="6" style="stroke:#222222;stroke-width:1.0;"/><rect fill="#F1F1F1" height="36.3887" rx="12.5" ry="12.5" style="stroke:#181818;stroke-width:0.5;" width="95" x="893.5" y="696.0044"/><text fill="#000000" font-family="sans-serif" font-size="12" lengthAdjust="spacing" textLength="75" x="903.5" y="719.7563">&#38145;&#26410;&#33719;&#21462; &#25104;&#21151;</text><rect fill="#F1F1F1" height="36.3887" rx="12.5" ry="12.5" style="stroke:#181818;stroke-width:0.5;" width="123" x="879.5" y="752.3931"/><text fill="#000000" font-family="sans-serif" font-size="12" lengthAdjust="spacing" textLength="103" x="889.5" y="776.145">&#30701;&#26242;&#31561;&#24453;(&#22914; 50ms)</text><rect fill="#F1F1F1" height="36.3887" rx="12.5" ry="12.5" style="stroke:#181818;stroke-width:0.5;" width="119" x="881.5" y="890.2703"/><text fill="#000000" font-family="sans-serif" font-size="12" lengthAdjust="spacing" textLength="99" x="891.5" y="914.0222">&#20174; Redis &#35835;&#21462;&#32531;&#23384;</text><polygon fill="#F1F1F1" points="916,961.6589,966,961.6589,978,973.6589,966,985.6589,916,985.6589,904,973.6589,916,961.6589" style="stroke:#181818;stroke-width:0.5;"/><text fill="#000000" font-family="sans-serif" font-size="11" lengthAdjust="spacing" textLength="50" x="916" y="978.7534">&#32531;&#23384;&#21629;&#20013;?</text><text fill="#000000" font-family="sans-serif" font-size="11" lengthAdjust="spacing" textLength="11" x="893" y="971.2419">&#26159;</text><text fill="#000000" font-family="sans-serif" font-size="11" lengthAdjust="spacing" textLength="11" x="978" y="971.2419">&#21542;</text><rect fill="#F1F1F1" height="36.3887" rx="12.5" ry="12.5" style="stroke:#181818;stroke-width:0.5;" width="92" x="824" y="995.6589"/><text fill="#000000" font-family="sans-serif" font-size="12" lengthAdjust="spacing" textLength="72" x="834" y="1019.4109">&#36820;&#22238;&#32531;&#23384;&#25968;&#25454;</text><ellipse cx="870" cy="1078.0476" fill="none" rx="11" ry="11" style="stroke:#222222;stroke-width:1.0;"/><ellipse cx="870" cy="1078.0476" fill="#222222" rx="6" ry="6" style="stroke:#222222;stroke-width:1.0;"/><rect fill="#F1F1F1" height="36.3887" rx="12.5" ry="12.5" style="stroke:#181818;stroke-width:0.5;" width="152" x="936" y="995.6589"/><text fill="#000000" font-family="sans-serif" font-size="12" lengthAdjust="spacing" textLength="132" x="946" y="1019.4109">&#32487;&#32493;&#31561;&#24453;&#25110;&#36864;&#20986;&#37325;&#35797;&#24490;&#29615;</text><polygon fill="#F1F1F1" points="941,823.7817,953,835.7817,941,847.7817,929,835.7817,941,823.7817" style="stroke:#181818;stroke-width:0.5;"/><polygon fill="#F1F1F1" points="924.5,1143.0476,957.5,1143.0476,969.5,1155.0476,957.5,1167.0476,924.5,1167.0476,912.5,1155.0476,924.5,1143.0476" style="stroke:#181818;stroke-width:0.5;"/><text fill="#000000" font-family="sans-serif" font-size="11" lengthAdjust="spacing" textLength="33" x="924.5" y="1160.1421">&#26410;&#36229;&#26102;</text><rect fill="#F1F1F1" height="36.3887" rx="12.5" ry="12.5" style="stroke:#181818;stroke-width:0.5;" width="196" x="843" y="1189.4592"/><text fill="#000000" font-family="sans-serif" font-size="12" lengthAdjust="spacing" textLength="176" x="853" y="1213.2112">&#33509;&#38271;&#26102;&#38388;&#26410;&#21629;&#20013;&#65292;&#36820;&#22238;&#8220;&#31245;&#21518;&#37325;&#35797;&#8221;</text><ellipse cx="941" cy="1259.2595" fill="none" rx="11" ry="11" style="stroke:#222222;stroke-width:1.0;"/><ellipse cx="941" cy="1259.2595" fill="#222222" rx="6" ry="6" style="stroke:#222222;stroke-width:1.0;"/><line style="stroke:#000000;stroke-width:1.5;" x1="211" x2="211" y1="12.4551" y2="1341.0598"/><line style="stroke:#000000;stroke-width:1.5;" x1="1121" x2="1121" y1="12.4551" y2="1341.0598"/><line style="stroke:#181818;stroke-width:1.0;" x1="114" x2="114" y1="62.0381" y2="82.0381"/><polygon fill="#181818" points="110,72.0381,114,82.0381,118,72.0381,114,76.0381" style="stroke:#181818;stroke-width:1.0;"/><line style="stroke:#181818;stroke-width:1.0;" x1="710.625" x2="710.625" y1="280.7156" y2="308.0212"/><polygon fill="#181818" points="706.625,298.0212,710.625,308.0212,714.625,298.0212,710.625,302.0212" style="stroke:#181818;stroke-width:1.0;"/><line style="stroke:#181818;stroke-width:1.0;" x1="710.625" x2="710.625" y1="218.8154" y2="244.3269"/><polygon fill="#181818" points="706.625,234.3269,710.625,244.3269,714.625,234.3269,710.625,238.3269" style="stroke:#181818;stroke-width:1.0;"/><line style="stroke:#181818;stroke-width:1.0;" x1="771.125" x2="788.625" y1="206.8154" y2="206.8154"/><polygon fill="#181818" points="784.625,278.0212,788.625,288.0212,792.625,278.0212,788.625,282.0212" style="stroke:#181818;stroke-width:1.0;"/><line style="stroke:#181818;stroke-width:1.0;" x1="788.625" x2="788.625" y1="206.8154" y2="352.0212"/><line style="stroke:#181818;stroke-width:1.0;" x1="788.625" x2="710.625" y1="352.0212" y2="352.0212"/><line style="stroke:#181818;stroke-width:1.0;" x1="710.625" x2="710.625" y1="352.0212" y2="372.0212"/><polygon fill="#181818" points="706.625,362.0212,710.625,372.0212,714.625,362.0212,710.625,366.0212" style="stroke:#181818;stroke-width:1.0;"/><line style="stroke:#181818;stroke-width:1.0;" x1="710.625" x2="710.625" y1="174.8154" y2="194.8154"/><polygon fill="#181818" points="706.625,184.8154,710.625,194.8154,714.625,184.8154,710.625,188.8154" style="stroke:#181818;stroke-width:1.0;"/><line style="stroke:#181818;stroke-width:1.0;" x1="710.625" x2="710.625" y1="514.3101" y2="541.6157"/><polygon fill="#181818" points="706.625,531.6157,710.625,541.6157,714.625,531.6157,710.625,535.6157" style="stroke:#181818;stroke-width:1.0;"/><line style="stroke:#181818;stroke-width:1.0;" x1="710.625" x2="710.625" y1="452.4099" y2="477.9214"/><polygon fill="#181818" points="706.625,467.9214,710.625,477.9214,714.625,467.9214,710.625,471.9214" style="stroke:#181818;stroke-width:1.0;"/><line style="stroke:#181818;stroke-width:1.0;" x1="747.625" x2="766.625" y1="440.4099" y2="440.4099"/><polygon fill="#181818" points="762.625,511.6157,766.625,521.6157,770.625,511.6157,766.625,515.6157" style="stroke:#181818;stroke-width:1.0;"/><line style="stroke:#181818;stroke-width:1.0;" x1="766.625" x2="766.625" y1="440.4099" y2="585.6157"/><line style="stroke:#181818;stroke-width:1.0;" x1="766.625" x2="710.625" y1="585.6157" y2="585.6157"/><line style="stroke:#181818;stroke-width:1.0;" x1="710.625" x2="710.625" y1="585.6157" y2="605.6157"/><polygon fill="#181818" points="706.625,595.6157,710.625,605.6157,714.625,595.6157,710.625,599.6157" style="stroke:#181818;stroke-width:1.0;"/><line style="stroke:#181818;stroke-width:1.0;" x1="710.625" x2="710.625" y1="408.4099" y2="428.4099"/><polygon fill="#181818" points="706.625,418.4099,710.625,428.4099,714.625,418.4099,710.625,422.4099" style="stroke:#181818;stroke-width:1.0;"/><line style="stroke:#181818;stroke-width:1.0;" x1="480.25" x2="480.25" y1="838.2932" y2="867.7817"/><polygon fill="#181818" points="476.25,857.7817,480.25,867.7817,484.25,857.7817,480.25,861.7817" style="stroke:#181818;stroke-width:1.0;"/><line style="stroke:#181818;stroke-width:1.0;" x1="480.25" x2="480.25" y1="904.1704" y2="939.1704"/><polygon fill="#181818" points="476.25,929.1704,480.25,939.1704,484.25,929.1704,480.25,933.1704" style="stroke:#181818;stroke-width:1.0;"/><line style="stroke:#181818;stroke-width:1.0;" x1="480.25" x2="480.25" y1="776.3931" y2="801.9045"/><polygon fill="#181818" points="476.25,791.9045,480.25,801.9045,484.25,791.9045,480.25,795.9045" style="stroke:#181818;stroke-width:1.0;"/><line style="stroke:#181818;stroke-width:1.0;" x1="517.25" x2="537.75" y1="764.3931" y2="764.3931"/><polygon fill="#181818" points="533.75,865.7817,537.75,875.7817,541.75,865.7817,537.75,869.7817" style="stroke:#181818;stroke-width:1.0;"/><line style="stroke:#181818;stroke-width:1.0;" x1="537.75" x2="537.75" y1="764.3931" y2="992.6819"/><line style="stroke:#181818;stroke-width:1.0;" x1="537.75" x2="480.25" y1="992.6819" y2="992.6819"/><line style="stroke:#181818;stroke-width:1.0;" x1="480.25" x2="480.25" y1="992.6819" y2="1027.6819"/><polygon fill="#181818" points="476.25,1017.6819,480.25,1027.6819,484.25,1017.6819,480.25,1021.6819" style="stroke:#181818;stroke-width:1.0;"/><line style="stroke:#181818;stroke-width:1.0;" x1="480.25" x2="480.25" y1="732.3931" y2="752.3931"/><polygon fill="#181818" points="476.25,742.3931,480.25,752.3931,484.25,742.3931,480.25,746.3931" style="stroke:#181818;stroke-width:1.0;"/><line style="stroke:#181818;stroke-width:1.0;" x1="333.5" x2="333.5" y1="1169.4592" y2="1191.8708"/><polygon fill="#181818" points="329.5,1181.8708,333.5,1191.8708,337.5,1181.8708,333.5,1185.8708" style="stroke:#181818;stroke-width:1.0;"/><line style="stroke:#181818;stroke-width:1.0;" x1="333.5" x2="333.5" y1="1228.2595" y2="1250.6711"/><polygon fill="#181818" points="329.5,1240.6711,333.5,1250.6711,337.5,1240.6711,333.5,1244.6711" style="stroke:#181818;stroke-width:1.0;"/><line style="stroke:#181818;stroke-width:1.0;" x1="333.5" x2="333.5" y1="1287.0598" y2="1307.0598"/><polygon fill="#181818" points="329.5,1297.0598,333.5,1307.0598,337.5,1297.0598,333.5,1301.0598" style="stroke:#181818;stroke-width:1.0;"/><line style="stroke:#181818;stroke-width:1.0;" x1="627" x2="627" y1="1169.4592" y2="1191.8708"/><polygon fill="#181818" points="623,1181.8708,627,1191.8708,631,1181.8708,627,1185.8708" style="stroke:#181818;stroke-width:1.0;"/><line style="stroke:#181818;stroke-width:1.0;" x1="627" x2="627" y1="1228.2595" y2="1250.6711"/><polygon fill="#181818" points="623,1240.6711,627,1250.6711,631,1240.6711,627,1244.6711" style="stroke:#181818;stroke-width:1.0;"/><line style="stroke:#181818;stroke-width:1.0;" x1="627" x2="627" y1="1287.0598" y2="1307.0598"/><polygon fill="#181818" points="623,1297.0598,627,1307.0598,631,1297.0598,627,1301.0598" style="stroke:#181818;stroke-width:1.0;"/><line style="stroke:#181818;stroke-width:1.0;" x1="414.25" x2="333.5" y1="1111.0706" y2="1111.0706"/><line style="stroke:#181818;stroke-width:1.0;" x1="333.5" x2="333.5" y1="1111.0706" y2="1133.0706"/><polygon fill="#181818" points="329.5,1123.0706,333.5,1133.0706,337.5,1123.0706,333.5,1127.0706" style="stroke:#181818;stroke-width:1.0;"/><line style="stroke:#181818;stroke-width:1.0;" x1="546.25" x2="627" y1="1111.0706" y2="1111.0706"/><line style="stroke:#181818;stroke-width:1.0;" x1="627" x2="627" y1="1111.0706" y2="1133.0706"/><polygon fill="#181818" points="623,1123.0706,627,1133.0706,631,1123.0706,627,1127.0706" style="stroke:#181818;stroke-width:1.0;"/><line style="stroke:#181818;stroke-width:1.0;" x1="480.25" x2="480.25" y1="1064.0706" y2="1099.0706"/><polygon fill="#181818" points="476.25,1089.0706,480.25,1099.0706,484.25,1089.0706,480.25,1093.0706" style="stroke:#181818;stroke-width:1.0;"/><line style="stroke:#181818;stroke-width:1.0;" x1="941" x2="941" y1="732.3931" y2="752.3931"/><polygon fill="#181818" points="937,742.3931,941,752.3931,945,742.3931,941,746.3931" style="stroke:#181818;stroke-width:1.0;"/><line style="stroke:#181818;stroke-width:1.0;" x1="870" x2="870" y1="1032.0476" y2="1067.0476"/><polygon fill="#181818" points="866,1057.0476,870,1067.0476,874,1057.0476,870,1061.0476" style="stroke:#181818;stroke-width:1.0;"/><line style="stroke:#181818;stroke-width:1.0;" x1="904" x2="870" y1="973.6589" y2="973.6589"/><line style="stroke:#181818;stroke-width:1.0;" x1="870" x2="870" y1="973.6589" y2="995.6589"/><polygon fill="#181818" points="866,985.6589,870,995.6589,874,985.6589,870,989.6589" style="stroke:#181818;stroke-width:1.0;"/><line style="stroke:#181818;stroke-width:1.0;" x1="978" x2="1012" y1="973.6589" y2="973.6589"/><line style="stroke:#181818;stroke-width:1.0;" x1="1012" x2="1012" y1="973.6589" y2="995.6589"/><polygon fill="#181818" points="1008,985.6589,1012,995.6589,1016,985.6589,1012,989.6589" style="stroke:#181818;stroke-width:1.0;"/><line style="stroke:#181818;stroke-width:1.0;" x1="1012" x2="1012" y1="1032.0476" y2="1095.0476"/><line style="stroke:#181818;stroke-width:1.0;" x1="1012" x2="941" y1="1095.0476" y2="1095.0476"/><line style="stroke:#181818;stroke-width:1.0;" x1="941" x2="941" y1="1095.0476" y2="1143.0476"/><polygon fill="#181818" points="937,1133.0476,941,1143.0476,945,1133.0476,941,1137.0476" style="stroke:#181818;stroke-width:1.0;"/><line style="stroke:#181818;stroke-width:1.0;" x1="941" x2="941" y1="926.6589" y2="961.6589"/><polygon fill="#181818" points="937,951.6589,941,961.6589,945,951.6589,941,955.6589" style="stroke:#181818;stroke-width:1.0;"/><line style="stroke:#181818;stroke-width:1.0;" x1="941" x2="941" y1="847.7817" y2="890.2703"/><polygon fill="#181818" points="937,880.2703,941,890.2703,945,880.2703,941,884.2703" style="stroke:#181818;stroke-width:1.0;"/><line style="stroke:#181818;stroke-width:1.0;" x1="969.5" x2="1102" y1="1155.0476" y2="1155.0476"/><polygon fill="#181818" points="1098,1002.6589,1102,992.6589,1106,1002.6589,1102,998.6589" style="stroke:#181818;stroke-width:1.0;"/><line style="stroke:#181818;stroke-width:1.0;" x1="1102" x2="1102" y1="835.7817" y2="1155.0476"/><line style="stroke:#181818;stroke-width:1.0;" x1="1102" x2="953" y1="835.7817" y2="835.7817"/><polygon fill="#181818" points="963,831.7817,953,835.7817,963,839.7817,959,835.7817" style="stroke:#181818;stroke-width:1.0;"/><line style="stroke:#181818;stroke-width:1.0;" x1="941" x2="941" y1="788.7817" y2="823.7817"/><polygon fill="#181818" points="937,813.7817,941,823.7817,945,813.7817,941,817.7817" style="stroke:#181818;stroke-width:1.0;"/><line style="stroke:#181818;stroke-width:1.0;" x1="941" x2="941" y1="1167.0476" y2="1189.4592"/><polygon fill="#181818" points="937,1179.4592,941,1189.4592,945,1179.4592,941,1183.4592" style="stroke:#181818;stroke-width:1.0;"/><line style="stroke:#181818;stroke-width:1.0;" x1="941" x2="941" y1="1225.8479" y2="1248.2595"/><polygon fill="#181818" points="937,1238.2595,941,1248.2595,945,1238.2595,941,1242.2595" style="stroke:#181818;stroke-width:1.0;"/><line style="stroke:#181818;stroke-width:1.0;" x1="668.125" x2="480.25" y1="674.0044" y2="674.0044"/><line style="stroke:#181818;stroke-width:1.0;" x1="480.25" x2="480.25" y1="674.0044" y2="696.0044"/><polygon fill="#181818" points="476.25,686.0044,480.25,696.0044,484.25,686.0044,480.25,690.0044" style="stroke:#181818;stroke-width:1.0;"/><line style="stroke:#181818;stroke-width:1.0;" x1="753.125" x2="941" y1="674.0044" y2="674.0044"/><line style="stroke:#181818;stroke-width:1.0;" x1="941" x2="941" y1="674.0044" y2="696.0044"/><polygon fill="#181818" points="937,686.0044,941,696.0044,945,686.0044,941,690.0044" style="stroke:#181818;stroke-width:1.0;"/><line style="stroke:#181818;stroke-width:1.0;" x1="710.625" x2="710.625" y1="642.0044" y2="662.0044"/><polygon fill="#181818" points="706.625,652.0044,710.625,662.0044,714.625,652.0044,710.625,656.0044" style="stroke:#181818;stroke-width:1.0;"/><line style="stroke:#181818;stroke-width:1.0;" x1="114" x2="114" y1="118.4268" y2="123.4268"/><line style="stroke:#181818;stroke-width:1.0;" x1="114" x2="710.625" y1="123.4268" y2="123.4268"/><line style="stroke:#181818;stroke-width:1.0;" x1="710.625" x2="710.625" y1="123.4268" y2="138.4268"/><polygon fill="#181818" points="706.625,128.4268,710.625,138.4268,714.625,128.4268,710.625,132.4268" style="stroke:#181818;stroke-width:1.0;"/><text fill="#000000" font-family="sans-serif" font-size="18" lengthAdjust="spacing" textLength="36" x="95" y="33.083">&#29992;&#25143;</text><text fill="#000000" font-family="sans-serif" font-size="18" lengthAdjust="spacing" textLength="36" x="648" y="33.083">&#26381;&#21153;</text><!--SRC=[ZPJBRjf058RtVegZh42DecpQXH7gAbAhTXL5wfe6fw0IGDXILOa5fU9I6dCfboI4W6WBSTE24oaD57DvbuWpjbTzXGuC9I64a9Lbpt_cVF_CVnpKSmg9juASA3a24iTZAcFyRc4-IZ-IIirGlnfgYvo7BRj2ODlby4hFdLORnmL9ISP4DSZnv5k8wW3R7yrYr1Z4YFOT3nKW1ogcwxWNmVHFkAwrSUuTiDmM3zioKpwrWkGIl62XvLOEWDUFBaYoPWnoU5I-2fKOrqZUEC2ISXKwjb6LAFdydE1rkdSuZXzgITWKd6uH35N3L47lPgaOsEE5yDw-8hfyVdu57irXCGrcUiDsOuw4CJ09oPyHkJdN6i-E3JLl95kqBM0yIcrYDsNcFe37j_sM7_UztPEfgOR4qvYepBN5g4n-LU5kLoE2PU0BqUc26KkGN7y6bQsCRG5CZ54bYm8hnauMHbx0g2hmwjd6vWQudVQRnXZLLCsAGTUof5mQjZlwZyuTb9ZEJ2nYz10ZDQ0oLFyOvrLgiDBOsdgv2iBQcpLuigwVVB4kiy0l2SsrIOyeq4Ycwuiui5aUzhBCpIeOpRxUQr8Q-sk7AD0d3P9PJ95IXoGAc50Uo3MPi1ktCNlcCrJyA1-bqqcoM59iu_6eD4Wnh3S-OJzYmNeO7g_lYkEZ2GX-mI6nZel3yv3ut1EWAVJSAOxOj1DTQp0s4Y-OeH36EcPCfYE2_LCzgR8zcD__mF3EvVRGZKPkBoDa_vBDtkUQcH_GDtF_Wgumqh_TlUaLwugCwIJRVEwdy0y0]--></g></svg>