<?xml version="1.0" encoding="us-ascii" standalone="no"?><svg xmlns="http://www.w3.org/2000/svg" xmlns:xlink="http://www.w3.org/1999/xlink" contentStyleType="text/css" height="2202px" preserveAspectRatio="none" style="width:1459px;height:2202px;background:#FFFFFF;" version="1.1" viewBox="0 0 1459 2202" width="1459px" zoomAndPan="magnify"><defs/><g><rect fill="none" height="24.583" style="stroke:none;stroke-width:1.0;" width="1426.5" x="15" y="12.4551"/><ellipse cx="166.5" cy="52.0381" fill="#222222" rx="10" ry="10" style="stroke:#222222;stroke-width:1.0;"/><rect fill="#F1F1F1" height="36.3887" rx="12.5" ry="12.5" style="stroke:#181818;stroke-width:0.5;" width="291" x="21" y="82.0381"/><text fill="#000000" font-family="sans-serif" font-size="12" lengthAdjust="spacing" textLength="271" x="31" y="105.79">&#21457;&#36215;&#31186;&#26432;&#35831;&#27714; (/vouchers/seckill/claim/{voucherId})</text><line style="stroke:#000000;stroke-width:1.5;" x1="15" x2="15" y1="12.4551" y2="2190.5747"/><rect fill="#F1F1F1" height="36.3887" rx="12.5" ry="12.5" style="stroke:#181818;stroke-width:0.5;" width="126" x="465.5" y="138.4268"/><text fill="#000000" font-family="sans-serif" font-size="12" lengthAdjust="spacing" textLength="106" x="475.5" y="162.1787">&#33719;&#21462;&#24403;&#21069;&#26102;&#38388; (now)</text><rect fill="#F1F1F1" height="36.3887" rx="12.5" ry="12.5" style="stroke:#181818;stroke-width:0.5;" width="163" x="447" y="244.3269"/><text fill="#000000" font-family="sans-serif" font-size="12" lengthAdjust="spacing" textLength="143" x="457" y="268.0789">&#36820;&#22238; "&#31186;&#26432;&#26410;&#24320;&#22987;&#25110;&#24050;&#32467;&#26463;"</text><ellipse cx="528.5" cy="319.0212" fill="none" rx="11" ry="11" style="stroke:#222222;stroke-width:1.0;"/><ellipse cx="528.5" cy="319.0212" fill="#222222" rx="6" ry="6" style="stroke:#222222;stroke-width:1.0;"/><polygon fill="#F1F1F1" points="442.5,194.8154,614.5,194.8154,626.5,206.8154,614.5,218.8154,442.5,218.8154,430.5,206.8154,442.5,194.8154" style="stroke:#181818;stroke-width:0.5;"/><text fill="#000000" font-family="sans-serif" font-size="11" lengthAdjust="spacing" textLength="11" x="532.5" y="231.4214">&#21542;</text><text fill="#000000" font-family="sans-serif" font-size="11" lengthAdjust="spacing" textLength="172" x="442.5" y="211.9099">now &lt; beginTime or now &gt; endTime</text><rect fill="#F1F1F1" height="36.3887" rx="12.5" ry="12.5" style="stroke:#181818;stroke-width:0.5;" width="82" x="487.5" y="372.0212"/><text fill="#000000" font-family="sans-serif" font-size="12" lengthAdjust="spacing" textLength="62" x="497.5" y="395.7732">&#33719;&#21462; userId</text><rect fill="#F1F1F1" height="36.3887" rx="12.5" ry="12.5" style="stroke:#181818;stroke-width:0.5;" width="336" x="360.5" y="428.4099"/><text fill="#000000" font-family="sans-serif" font-size="12" lengthAdjust="spacing" textLength="316" x="370.5" y="452.1619">&#20174; Redis &#35835;&#21462;&#24211;&#23384; (stockKey = "seckill:stock:" + voucherId)</text><rect fill="#F1F1F1" height="36.3887" rx="12.5" ry="12.5" style="stroke:#181818;stroke-width:0.5;" width="103" x="477" y="534.3101"/><text fill="#000000" font-family="sans-serif" font-size="12" lengthAdjust="spacing" textLength="83" x="487" y="558.062">&#36820;&#22238; "&#24211;&#23384;&#19981;&#36275;"</text><ellipse cx="528.5" cy="609.0044" fill="none" rx="11" ry="11" style="stroke:#222222;stroke-width:1.0;"/><ellipse cx="528.5" cy="609.0044" fill="#222222" rx="6" ry="6" style="stroke:#222222;stroke-width:1.0;"/><polygon fill="#F1F1F1" points="503.5,484.7986,553.5,484.7986,565.5,496.7986,553.5,508.7986,503.5,508.7986,491.5,496.7986,503.5,484.7986" style="stroke:#181818;stroke-width:0.5;"/><text fill="#000000" font-family="sans-serif" font-size="11" lengthAdjust="spacing" textLength="11" x="532.5" y="521.4045">&#21542;</text><text fill="#000000" font-family="sans-serif" font-size="11" lengthAdjust="spacing" textLength="50" x="503.5" y="501.8931">stock &lt;= 0</text><rect fill="#F1F1F1" height="36.3887" rx="12.5" ry="12.5" style="stroke:#181818;stroke-width:0.5;" width="413" x="322" y="662.0044"/><text fill="#000000" font-family="sans-serif" font-size="12" lengthAdjust="spacing" textLength="393" x="332" y="685.7563">&#26816;&#26597; Redis Set &#26159;&#21542;&#23384;&#22312; userId (usersKey = "seckill:users:" + voucherId)</text><rect fill="#F1F1F1" height="36.3887" rx="12.5" ry="12.5" style="stroke:#181818;stroke-width:0.5;" width="139" x="459" y="767.9045"/><text fill="#000000" font-family="sans-serif" font-size="12" lengthAdjust="spacing" textLength="119" x="469" y="791.6565">&#36820;&#22238; "&#24744;&#24050;&#21442;&#19982;&#36807;&#31186;&#26432;"</text><ellipse cx="528.5" cy="842.5989" fill="none" rx="11" ry="11" style="stroke:#222222;stroke-width:1.0;"/><ellipse cx="528.5" cy="842.5989" fill="#222222" rx="6" ry="6" style="stroke:#222222;stroke-width:1.0;"/><polygon fill="#F1F1F1" points="460,718.3931,597,718.3931,609,730.3931,597,742.3931,460,742.3931,448,730.3931,460,718.3931" style="stroke:#181818;stroke-width:0.5;"/><text fill="#000000" font-family="sans-serif" font-size="11" lengthAdjust="spacing" textLength="11" x="532.5" y="754.999">&#26159;</text><text fill="#000000" font-family="sans-serif" font-size="11" lengthAdjust="spacing" textLength="137" x="460" y="735.4875">isMember(usersKey, userId)</text><rect fill="#F1F1F1" height="36.3887" rx="12.5" ry="12.5" style="stroke:#181818;stroke-width:0.5;" width="241" x="408" y="895.5989"/><text fill="#000000" font-family="sans-serif" font-size="12" lengthAdjust="spacing" textLength="221" x="418" y="919.3508">&#25191;&#34892; Redis &#21407;&#23376;&#20943;&#24211;&#23384; (DECR stockKey)</text><rect fill="#F1F1F1" height="36.3887" rx="12.5" ry="12.5" style="stroke:#181818;stroke-width:0.5;" width="209" x="424" y="1001.499"/><text fill="#000000" font-family="sans-serif" font-size="12" lengthAdjust="spacing" textLength="189" x="434" y="1025.251">&#22238;&#28378;&#26631;&#35760; (SREM usersKey, userId)</text><rect fill="#F1F1F1" height="36.3887" rx="12.5" ry="12.5" style="stroke:#181818;stroke-width:0.5;" width="115" x="471" y="1057.8877"/><text fill="#000000" font-family="sans-serif" font-size="12" lengthAdjust="spacing" textLength="95" x="481" y="1081.6396">&#36820;&#22238; "&#24211;&#23384;&#24050;&#21806;&#32580;"</text><ellipse cx="528.5" cy="1125.2764" fill="none" rx="11" ry="11" style="stroke:#222222;stroke-width:1.0;"/><ellipse cx="528.5" cy="1125.2764" fill="#222222" rx="6" ry="6" style="stroke:#222222;stroke-width:1.0;"/><polygon fill="#F1F1F1" points="503.5,951.9875,553.5,951.9875,565.5,963.9875,553.5,975.9875,503.5,975.9875,491.5,963.9875,503.5,951.9875" style="stroke:#181818;stroke-width:0.5;"/><text fill="#000000" font-family="sans-serif" font-size="11" lengthAdjust="spacing" textLength="11" x="532.5" y="988.5935">&#21542;</text><text fill="#000000" font-family="sans-serif" font-size="11" lengthAdjust="spacing" textLength="50" x="503.5" y="969.082">remain &lt; 0</text><rect fill="#F1F1F1" height="36.3887" rx="12.5" ry="12.5" style="stroke:#181818;stroke-width:0.5;" width="280" x="388.5" y="1178.2764"/><text fill="#000000" font-family="sans-serif" font-size="12" lengthAdjust="spacing" textLength="260" x="398.5" y="1202.0283">&#21521; Redis Set &#28155;&#21152;&#29992;&#25143; (SADD usersKey, userId)</text><rect fill="#F1F1F1" height="36.3887" rx="12.5" ry="12.5" style="stroke:#181818;stroke-width:0.5;" width="348" x="354.5" y="1234.665"/><text fill="#000000" font-family="sans-serif" font-size="12" lengthAdjust="spacing" textLength="328" x="364.5" y="1258.417">&#29983;&#25104;&#20840;&#23616;&#21807;&#19968;&#35746;&#21333;ID (orderId = redisIdWorker.nextId("order"))</text><rect fill="#F1F1F1" height="36.3887" rx="12.5" ry="12.5" style="stroke:#181818;stroke-width:0.5;" width="286" x="385.5" y="1291.0537"/><text fill="#000000" font-family="sans-serif" font-size="12" lengthAdjust="spacing" textLength="266" x="395.5" y="1314.8057">&#23553;&#35013;&#31186;&#26432;&#28040;&#24687; (orderId, userId, voucherId, shopId)</text><rect fill="#F1F1F1" height="36.3887" rx="12.5" ry="12.5" style="stroke:#181818;stroke-width:0.5;" width="332" x="362.5" y="1347.4424"/><text fill="#000000" font-family="sans-serif" font-size="12" lengthAdjust="spacing" textLength="312" x="372.5" y="1371.1943">&#21457;&#36865;&#28040;&#24687;&#21040; RabbitMQ ("seckill_exchange", "seckill.order")</text><rect fill="#F1F1F1" height="36.3887" rx="12.5" ry="12.5" style="stroke:#181818;stroke-width:0.5;" width="86" x="485.5" y="1403.8311"/><text fill="#000000" font-family="sans-serif" font-size="12" lengthAdjust="spacing" textLength="66" x="495.5" y="1427.583">&#36820;&#22238; orderId</text><ellipse cx="528.5" cy="1471.2197" fill="none" rx="11" ry="11" style="stroke:#222222;stroke-width:1.0;"/><ellipse cx="528.5" cy="1471.2197" fill="#222222" rx="6" ry="6" style="stroke:#222222;stroke-width:1.0;"/><line style="stroke:#000000;stroke-width:1.5;" x1="316" x2="316" y1="12.4551" y2="2190.5747"/><ellipse cx="1090.5" cy="1502.2197" fill="#222222" rx="10" ry="10" style="stroke:#222222;stroke-width:1.0;"/><rect fill="#F1F1F1" height="36.3887" rx="12.5" ry="12.5" style="stroke:#181818;stroke-width:0.5;" width="128" x="1026.5" y="1532.2197"/><text fill="#000000" font-family="sans-serif" font-size="12" lengthAdjust="spacing" textLength="108" x="1036.5" y="1555.9717">&#20174;&#38431;&#21015;&#25509;&#25910;&#31186;&#26432;&#28040;&#24687;</text><rect fill="#F1F1F1" height="36.3887" rx="12.5" ry="12.5" style="stroke:#181818;stroke-width:0.5;" width="230" x="975.5" y="1588.6084"/><text fill="#000000" font-family="sans-serif" font-size="12" lengthAdjust="spacing" textLength="210" x="985.5" y="1612.3604">&#25552;&#21462; orderId, userId, voucherId, shopId</text><rect fill="#F1F1F1" height="36.3887" rx="12.5" ry="12.5" style="stroke:#181818;stroke-width:0.5;" width="691" x="745" y="1644.9971"/><text fill="#000000" font-family="sans-serif" font-size="12" lengthAdjust="spacing" textLength="671" x="755" y="1668.749">&#26816;&#26597;&#25968;&#25454;&#24211;&#26159;&#21542;&#24050;&#23384;&#22312; (SELECT COUNT(*) FROM tb_voucher_order WHERE user_id = userId AND voucher_id = voucherId)</text><rect fill="#F1F1F1" height="36.3887" rx="12.5" ry="12.5" style="stroke:#181818;stroke-width:0.5;" width="127" x="1027" y="1750.8972"/><text fill="#000000" font-family="sans-serif" font-size="12" lengthAdjust="spacing" textLength="107" x="1037" y="1774.6492">&#20002;&#24323;&#28040;&#24687; (&#24130;&#31561;&#22788;&#29702;)</text><ellipse cx="1090.5" cy="1825.5916" fill="none" rx="11" ry="11" style="stroke:#222222;stroke-width:1.0;"/><ellipse cx="1090.5" cy="1825.5916" fill="#222222" rx="6" ry="6" style="stroke:#222222;stroke-width:1.0;"/><polygon fill="#F1F1F1" points="1071,1701.3857,1110,1701.3857,1122,1713.3857,1110,1725.3857,1071,1725.3857,1059,1713.3857,1071,1701.3857" style="stroke:#181818;stroke-width:0.5;"/><text fill="#000000" font-family="sans-serif" font-size="11" lengthAdjust="spacing" textLength="11" x="1094.5" y="1737.9917">&#26159;</text><text fill="#000000" font-family="sans-serif" font-size="11" lengthAdjust="spacing" textLength="39" x="1071" y="1718.4802">&#24050;&#23384;&#22312;?</text><rect fill="#F1F1F1" height="36.3887" rx="12.5" ry="12.5" style="stroke:#181818;stroke-width:0.5;" width="666" x="757.5" y="1878.5916"/><text fill="#000000" font-family="sans-serif" font-size="12" lengthAdjust="spacing" textLength="646" x="767.5" y="1902.3435">&#25191;&#34892;&#20048;&#35266;&#38145;&#24211;&#23384;&#25187;&#20943; (UPDATE tb_seckill_voucher SET stock = stock - 1 WHERE voucher_id = voucherId AND stock &gt; 0)</text><rect fill="#F1F1F1" height="36.3887" rx="12.5" ry="12.5" style="stroke:#181818;stroke-width:0.5;" width="128" x="1026.5" y="1984.4917"/><text fill="#000000" font-family="sans-serif" font-size="12" lengthAdjust="spacing" textLength="108" x="1036.5" y="2008.2437">&#24211;&#23384;&#32791;&#23613;&#65292;&#20002;&#24323;&#28040;&#24687;</text><ellipse cx="1090.5" cy="2059.186" fill="none" rx="11" ry="11" style="stroke:#222222;stroke-width:1.0;"/><ellipse cx="1090.5" cy="2059.186" fill="#222222" rx="6" ry="6" style="stroke:#222222;stroke-width:1.0;"/><polygon fill="#F1F1F1" points="1043.5,1934.9802,1137.5,1934.9802,1149.5,1946.9802,1137.5,1958.9802,1043.5,1958.9802,1031.5,1946.9802,1043.5,1934.9802" style="stroke:#181818;stroke-width:0.5;"/><text fill="#000000" font-family="sans-serif" font-size="11" lengthAdjust="spacing" textLength="11" x="1094.5" y="1971.5862">&#21542;</text><text fill="#000000" font-family="sans-serif" font-size="11" lengthAdjust="spacing" textLength="94" x="1043.5" y="1952.0747">affectedRows == 0</text><rect fill="#F1F1F1" height="36.3887" rx="12.5" ry="12.5" style="stroke:#181818;stroke-width:0.5;" width="373" x="904" y="2112.186"/><text fill="#000000" font-family="sans-serif" font-size="12" lengthAdjust="spacing" textLength="353" x="914" y="2135.938">&#25554;&#20837;&#35746;&#21333;&#21040; tb_voucher_order (orderId, userId, voucherId, shopId)</text><ellipse cx="1090.5" cy="2179.5747" fill="none" rx="11" ry="11" style="stroke:#222222;stroke-width:1.0;"/><ellipse cx="1090.5" cy="2179.5747" fill="#222222" rx="6" ry="6" style="stroke:#222222;stroke-width:1.0;"/><line style="stroke:#000000;stroke-width:1.5;" x1="739" x2="739" y1="12.4551" y2="2190.5747"/><line style="stroke:#000000;stroke-width:1.5;" x1="1440" x2="1440" y1="12.4551" y2="2190.5747"/><line style="stroke:#181818;stroke-width:1.0;" x1="166.5" x2="166.5" y1="62.0381" y2="82.0381"/><polygon fill="#181818" points="162.5,72.0381,166.5,82.0381,170.5,72.0381,166.5,76.0381" style="stroke:#181818;stroke-width:1.0;"/><line style="stroke:#181818;stroke-width:1.0;" x1="528.5" x2="528.5" y1="280.7156" y2="308.0212"/><polygon fill="#181818" points="524.5,298.0212,528.5,308.0212,532.5,298.0212,528.5,302.0212" style="stroke:#181818;stroke-width:1.0;"/><line style="stroke:#181818;stroke-width:1.0;" x1="528.5" x2="528.5" y1="218.8154" y2="244.3269"/><polygon fill="#181818" points="524.5,234.3269,528.5,244.3269,532.5,234.3269,528.5,238.3269" style="stroke:#181818;stroke-width:1.0;"/><line style="stroke:#181818;stroke-width:1.0;" x1="626.5" x2="638.5" y1="206.8154" y2="206.8154"/><polygon fill="#181818" points="634.5,278.0212,638.5,288.0212,642.5,278.0212,638.5,282.0212" style="stroke:#181818;stroke-width:1.0;"/><line style="stroke:#181818;stroke-width:1.0;" x1="638.5" x2="638.5" y1="206.8154" y2="352.0212"/><line style="stroke:#181818;stroke-width:1.0;" x1="638.5" x2="528.5" y1="352.0212" y2="352.0212"/><line style="stroke:#181818;stroke-width:1.0;" x1="528.5" x2="528.5" y1="352.0212" y2="372.0212"/><polygon fill="#181818" points="524.5,362.0212,528.5,372.0212,532.5,362.0212,528.5,366.0212" style="stroke:#181818;stroke-width:1.0;"/><line style="stroke:#181818;stroke-width:1.0;" x1="528.5" x2="528.5" y1="174.8154" y2="194.8154"/><polygon fill="#181818" points="524.5,184.8154,528.5,194.8154,532.5,184.8154,528.5,188.8154" style="stroke:#181818;stroke-width:1.0;"/><line style="stroke:#181818;stroke-width:1.0;" x1="528.5" x2="528.5" y1="408.4099" y2="428.4099"/><polygon fill="#181818" points="524.5,418.4099,528.5,428.4099,532.5,418.4099,528.5,422.4099" style="stroke:#181818;stroke-width:1.0;"/><line style="stroke:#181818;stroke-width:1.0;" x1="528.5" x2="528.5" y1="570.6987" y2="598.0044"/><polygon fill="#181818" points="524.5,588.0044,528.5,598.0044,532.5,588.0044,528.5,592.0044" style="stroke:#181818;stroke-width:1.0;"/><line style="stroke:#181818;stroke-width:1.0;" x1="528.5" x2="528.5" y1="508.7986" y2="534.3101"/><polygon fill="#181818" points="524.5,524.3101,528.5,534.3101,532.5,524.3101,528.5,528.3101" style="stroke:#181818;stroke-width:1.0;"/><line style="stroke:#181818;stroke-width:1.0;" x1="565.5" x2="590" y1="496.7986" y2="496.7986"/><polygon fill="#181818" points="586,568.0044,590,578.0044,594,568.0044,590,572.0044" style="stroke:#181818;stroke-width:1.0;"/><line style="stroke:#181818;stroke-width:1.0;" x1="590" x2="590" y1="496.7986" y2="642.0044"/><line style="stroke:#181818;stroke-width:1.0;" x1="590" x2="528.5" y1="642.0044" y2="642.0044"/><line style="stroke:#181818;stroke-width:1.0;" x1="528.5" x2="528.5" y1="642.0044" y2="662.0044"/><polygon fill="#181818" points="524.5,652.0044,528.5,662.0044,532.5,652.0044,528.5,656.0044" style="stroke:#181818;stroke-width:1.0;"/><line style="stroke:#181818;stroke-width:1.0;" x1="528.5" x2="528.5" y1="464.7986" y2="484.7986"/><polygon fill="#181818" points="524.5,474.7986,528.5,484.7986,532.5,474.7986,528.5,478.7986" style="stroke:#181818;stroke-width:1.0;"/><line style="stroke:#181818;stroke-width:1.0;" x1="528.5" x2="528.5" y1="804.2932" y2="831.5989"/><polygon fill="#181818" points="524.5,821.5989,528.5,831.5989,532.5,821.5989,528.5,825.5989" style="stroke:#181818;stroke-width:1.0;"/><line style="stroke:#181818;stroke-width:1.0;" x1="528.5" x2="528.5" y1="742.3931" y2="767.9045"/><polygon fill="#181818" points="524.5,757.9045,528.5,767.9045,532.5,757.9045,528.5,761.9045" style="stroke:#181818;stroke-width:1.0;"/><line style="stroke:#181818;stroke-width:1.0;" x1="609" x2="621" y1="730.3931" y2="730.3931"/><polygon fill="#181818" points="617,801.5989,621,811.5989,625,801.5989,621,805.5989" style="stroke:#181818;stroke-width:1.0;"/><line style="stroke:#181818;stroke-width:1.0;" x1="621" x2="621" y1="730.3931" y2="875.5989"/><line style="stroke:#181818;stroke-width:1.0;" x1="621" x2="528.5" y1="875.5989" y2="875.5989"/><line style="stroke:#181818;stroke-width:1.0;" x1="528.5" x2="528.5" y1="875.5989" y2="895.5989"/><polygon fill="#181818" points="524.5,885.5989,528.5,895.5989,532.5,885.5989,528.5,889.5989" style="stroke:#181818;stroke-width:1.0;"/><line style="stroke:#181818;stroke-width:1.0;" x1="528.5" x2="528.5" y1="698.3931" y2="718.3931"/><polygon fill="#181818" points="524.5,708.3931,528.5,718.3931,532.5,708.3931,528.5,712.3931" style="stroke:#181818;stroke-width:1.0;"/><line style="stroke:#181818;stroke-width:1.0;" x1="528.5" x2="528.5" y1="1037.8877" y2="1057.8877"/><polygon fill="#181818" points="524.5,1047.8877,528.5,1057.8877,532.5,1047.8877,528.5,1051.8877" style="stroke:#181818;stroke-width:1.0;"/><line style="stroke:#181818;stroke-width:1.0;" x1="528.5" x2="528.5" y1="1094.2764" y2="1114.2764"/><polygon fill="#181818" points="524.5,1104.2764,528.5,1114.2764,532.5,1104.2764,528.5,1108.2764" style="stroke:#181818;stroke-width:1.0;"/><line style="stroke:#181818;stroke-width:1.0;" x1="528.5" x2="528.5" y1="975.9875" y2="1001.499"/><polygon fill="#181818" points="524.5,991.499,528.5,1001.499,532.5,991.499,528.5,995.499" style="stroke:#181818;stroke-width:1.0;"/><line style="stroke:#181818;stroke-width:1.0;" x1="565.5" x2="643" y1="963.9875" y2="963.9875"/><polygon fill="#181818" points="639,1055.8877,643,1065.8877,647,1055.8877,643,1059.8877" style="stroke:#181818;stroke-width:1.0;"/><line style="stroke:#181818;stroke-width:1.0;" x1="643" x2="643" y1="963.9875" y2="1158.2764"/><line style="stroke:#181818;stroke-width:1.0;" x1="643" x2="528.5" y1="1158.2764" y2="1158.2764"/><line style="stroke:#181818;stroke-width:1.0;" x1="528.5" x2="528.5" y1="1158.2764" y2="1178.2764"/><polygon fill="#181818" points="524.5,1168.2764,528.5,1178.2764,532.5,1168.2764,528.5,1172.2764" style="stroke:#181818;stroke-width:1.0;"/><line style="stroke:#181818;stroke-width:1.0;" x1="528.5" x2="528.5" y1="931.9875" y2="951.9875"/><polygon fill="#181818" points="524.5,941.9875,528.5,951.9875,532.5,941.9875,528.5,945.9875" style="stroke:#181818;stroke-width:1.0;"/><line style="stroke:#181818;stroke-width:1.0;" x1="528.5" x2="528.5" y1="1214.665" y2="1234.665"/><polygon fill="#181818" points="524.5,1224.665,528.5,1234.665,532.5,1224.665,528.5,1228.665" style="stroke:#181818;stroke-width:1.0;"/><line style="stroke:#181818;stroke-width:1.0;" x1="528.5" x2="528.5" y1="1271.0537" y2="1291.0537"/><polygon fill="#181818" points="524.5,1281.0537,528.5,1291.0537,532.5,1281.0537,528.5,1285.0537" style="stroke:#181818;stroke-width:1.0;"/><line style="stroke:#181818;stroke-width:1.0;" x1="528.5" x2="528.5" y1="1327.4424" y2="1347.4424"/><polygon fill="#181818" points="524.5,1337.4424,528.5,1347.4424,532.5,1337.4424,528.5,1341.4424" style="stroke:#181818;stroke-width:1.0;"/><line style="stroke:#181818;stroke-width:1.0;" x1="528.5" x2="528.5" y1="1383.8311" y2="1403.8311"/><polygon fill="#181818" points="524.5,1393.8311,528.5,1403.8311,532.5,1393.8311,528.5,1397.8311" style="stroke:#181818;stroke-width:1.0;"/><line style="stroke:#181818;stroke-width:1.0;" x1="528.5" x2="528.5" y1="1440.2197" y2="1460.2197"/><polygon fill="#181818" points="524.5,1450.2197,528.5,1460.2197,532.5,1450.2197,528.5,1454.2197" style="stroke:#181818;stroke-width:1.0;"/><line style="stroke:#181818;stroke-width:1.0;" x1="1090.5" x2="1090.5" y1="1512.2197" y2="1532.2197"/><polygon fill="#181818" points="1086.5,1522.2197,1090.5,1532.2197,1094.5,1522.2197,1090.5,1526.2197" style="stroke:#181818;stroke-width:1.0;"/><line style="stroke:#181818;stroke-width:1.0;" x1="1090.5" x2="1090.5" y1="1568.6084" y2="1588.6084"/><polygon fill="#181818" points="1086.5,1578.6084,1090.5,1588.6084,1094.5,1578.6084,1090.5,1582.6084" style="stroke:#181818;stroke-width:1.0;"/><line style="stroke:#181818;stroke-width:1.0;" x1="1090.5" x2="1090.5" y1="1624.9971" y2="1644.9971"/><polygon fill="#181818" points="1086.5,1634.9971,1090.5,1644.9971,1094.5,1634.9971,1090.5,1638.9971" style="stroke:#181818;stroke-width:1.0;"/><line style="stroke:#181818;stroke-width:1.0;" x1="1090.5" x2="1090.5" y1="1787.2859" y2="1814.5916"/><polygon fill="#181818" points="1086.5,1804.5916,1090.5,1814.5916,1094.5,1804.5916,1090.5,1808.5916" style="stroke:#181818;stroke-width:1.0;"/><line style="stroke:#181818;stroke-width:1.0;" x1="1090.5" x2="1090.5" y1="1725.3857" y2="1750.8972"/><polygon fill="#181818" points="1086.5,1740.8972,1090.5,1750.8972,1094.5,1740.8972,1090.5,1744.8972" style="stroke:#181818;stroke-width:1.0;"/><line style="stroke:#181818;stroke-width:1.0;" x1="1122" x2="1164" y1="1713.3857" y2="1713.3857"/><polygon fill="#181818" points="1160,1784.5916,1164,1794.5916,1168,1784.5916,1164,1788.5916" style="stroke:#181818;stroke-width:1.0;"/><line style="stroke:#181818;stroke-width:1.0;" x1="1164" x2="1164" y1="1713.3857" y2="1858.5916"/><line style="stroke:#181818;stroke-width:1.0;" x1="1164" x2="1090.5" y1="1858.5916" y2="1858.5916"/><line style="stroke:#181818;stroke-width:1.0;" x1="1090.5" x2="1090.5" y1="1858.5916" y2="1878.5916"/><polygon fill="#181818" points="1086.5,1868.5916,1090.5,1878.5916,1094.5,1868.5916,1090.5,1872.5916" style="stroke:#181818;stroke-width:1.0;"/><line style="stroke:#181818;stroke-width:1.0;" x1="1090.5" x2="1090.5" y1="1681.3857" y2="1701.3857"/><polygon fill="#181818" points="1086.5,1691.3857,1090.5,1701.3857,1094.5,1691.3857,1090.5,1695.3857" style="stroke:#181818;stroke-width:1.0;"/><line style="stroke:#181818;stroke-width:1.0;" x1="1090.5" x2="1090.5" y1="2020.8804" y2="2048.186"/><polygon fill="#181818" points="1086.5,2038.186,1090.5,2048.186,1094.5,2038.186,1090.5,2042.186" style="stroke:#181818;stroke-width:1.0;"/><line style="stroke:#181818;stroke-width:1.0;" x1="1090.5" x2="1090.5" y1="1958.9802" y2="1984.4917"/><polygon fill="#181818" points="1086.5,1974.4917,1090.5,1984.4917,1094.5,1974.4917,1090.5,1978.4917" style="stroke:#181818;stroke-width:1.0;"/><line style="stroke:#181818;stroke-width:1.0;" x1="1149.5" x2="1164.5" y1="1946.9802" y2="1946.9802"/><polygon fill="#181818" points="1160.5,2018.186,1164.5,2028.186,1168.5,2018.186,1164.5,2022.186" style="stroke:#181818;stroke-width:1.0;"/><line style="stroke:#181818;stroke-width:1.0;" x1="1164.5" x2="1164.5" y1="1946.9802" y2="2092.186"/><line style="stroke:#181818;stroke-width:1.0;" x1="1164.5" x2="1090.5" y1="2092.186" y2="2092.186"/><line style="stroke:#181818;stroke-width:1.0;" x1="1090.5" x2="1090.5" y1="2092.186" y2="2112.186"/><polygon fill="#181818" points="1086.5,2102.186,1090.5,2112.186,1094.5,2102.186,1090.5,2106.186" style="stroke:#181818;stroke-width:1.0;"/><line style="stroke:#181818;stroke-width:1.0;" x1="1090.5" x2="1090.5" y1="1914.9802" y2="1934.9802"/><polygon fill="#181818" points="1086.5,1924.9802,1090.5,1934.9802,1094.5,1924.9802,1090.5,1928.9802" style="stroke:#181818;stroke-width:1.0;"/><line style="stroke:#181818;stroke-width:1.0;" x1="1090.5" x2="1090.5" y1="2148.5747" y2="2168.5747"/><polygon fill="#181818" points="1086.5,2158.5747,1090.5,2168.5747,1094.5,2158.5747,1090.5,2162.5747" style="stroke:#181818;stroke-width:1.0;"/><line style="stroke:#181818;stroke-width:1.0;" x1="166.5" x2="166.5" y1="118.4268" y2="123.4268"/><line style="stroke:#181818;stroke-width:1.0;" x1="166.5" x2="528.5" y1="123.4268" y2="123.4268"/><line style="stroke:#181818;stroke-width:1.0;" x1="528.5" x2="528.5" y1="123.4268" y2="138.4268"/><polygon fill="#181818" points="524.5,128.4268,528.5,138.4268,532.5,128.4268,528.5,132.4268" style="stroke:#181818;stroke-width:1.0;"/><text fill="#000000" font-family="sans-serif" font-size="18" lengthAdjust="spacing" textLength="38" x="146.5" y="33.083">User</text><text fill="#000000" font-family="sans-serif" font-size="18" lengthAdjust="spacing" textLength="112" x="471.5" y="33.083">SeckillService</text><text fill="#000000" font-family="sans-serif" font-size="18" lengthAdjust="spacing" textLength="82" x="1048.5" y="33.083">Consumer</text><!--SRC=[ZPJRJXfH58RlvobMk1fQg-qjY8qHcf9MRG7Z9U6mbOd2c9dnq9GcIBLYAmSL3scrMAt5D16m1y6YyMNOc_6ghz0zCtke5PhsQiW-_EjR__etyH4PIN5ELWAImjbmTbNzNcqMryXkGYrNoKaI-9uPSJeKGPBS8wFGX30vsHEQ30ZHdkTitHr-ORLpNDnhx7gHD2E4K9opgPagpcxYYtMyd2PRfrTRtu2FYRFqi32c_u9U2A9n8UOJeWX42RIbFa2niBPW1IM2Oi3Zt2Sh1s1JB_FutNkm671avpC-J-3Y6vBQnDKlpVewsIrOxFIWh8XJ7DKGnam2c9OrIZjdQzGpu45XGGQrNDVOVgpZustWwPtGn2Fq31nWOKtQz3MR1Mv3gqz6hkz0hmFk_etHq6tKqkhfrpOeSf0WXKF6uKKAaEqo5Q0NyCuHOmLU-yetaFIrZaY2F8YYGIIrhdKn8Qk9I8lyWKYIHzGtd4qsQXdrSibmjPrrkQX-M66iE5F0npcyb3LjSxe6F61wnqWa50q8CJhPDdDeML9_I_QMr585UA_7DGXjjFPs5pNAVAbviT06XtEhrrsirl7hlMR-YAIgLBxVwUmaRslc2oILmuj7-2I1y-L6BQ6Mzd5wm-q4NfJ2klaEa3HPTtXKb2QGr1r3Suexp5lqVOjLay6LUVLWaMNnD4NcowthPhMktrFg0ZaYJXa0z8bT9UQDEpXL0KyW61IKmQV0ctFsexbG910RHvQkrkoxMMqgmEnXrUoSRWaN7n1ZydJqsbkcOR_QBk3K5iaSalpfTLQgGh8vxMdyczbk9fPiL4YwH8V2yahdOaIMzxeUkmPyC30yCkJZRrdXWMTu49IWdsdvzI8m-j3bSUbr_8BcCKjw_v3JB6gitynsgz3zcrbkrFRn-KlJVdoMR1uluuyBpTmhQ-SWDyvoQZ5vbPyteaMM3sYQWHzvukptkJHYSmAC0Rmkdn5mocLyxy0zrabdQBqVusWVVGD62u6nCHHIKDWZpihWwF37OV2eYIrSkVXvldAziRPEicjuyT08hPQVDf__BuUQv2y0]--></g></svg>